<svg xmlns="http://www.w3.org/2000/svg" xmlns:xlink="http://www.w3.org/1999/xlink" xmlns:inkscape="http://www.inkscape.org/namespaces/inkscape" version="1.1" width="467.93028" height="361.39799" viewBox="0 0 467.93028 361.39799">
<defs>
<clipPath id="clip_1">
<path transform="matrix(1,0,0,-1,0,361.39799)" d="M69.62187 84.1375H449.4973V317.39875H69.62187Z"/>
</clipPath>
<g id="font_2_49">
<path transform="matrix(.001,0,0,.001,0,0)" d="M373 0H285V560C263 540 235 519 201 499 167 479 136 464 109 454V539C158 562 201 590 238 623 274 655 300 687 316 719H373V0Z"/>
</g>
<g id="font_2_48">
<path transform="matrix(.001,0,0,.001,0,0)" d="M42 353C42 437 50 505 68 557 85 609 111 649 145 677 179 705 223 719 275 719 313 719 347 711 376 695 404 679 428 657 447 628 466 599 481 564 492 522 502 480 508 423 508 353 508 269 499 201 482 149 465 97 439 58 405 30 371 2 327-11 275-11 205-11 151 13 112 62 65 121 42 218 42 353ZM132 353C132 235 145 157 173 118 200 79 234 60 274 60 314 60 348 79 376 118 404 157 418 235 418 353 418 471 404 549 376 588 348 626 314 646 274 646 233 646 201 629 177 595 147 551 132 470 132 353Z"/>
</g>
<g id="font_2_52">
<path transform="matrix(.001,0,0,.001,0,0)" d="M323 0V171H13V252L339 716H411V252H508V171H411V0H323ZM323 252V575L99 252H323Z"/>
</g>
<clipPath id="clip_3">
<path transform="matrix(.02002,0,0,-.02002,205.84075,296.5308)" d="M-665-325H2000V1006H-665Z"/>
</clipPath>
<clipPath id="clip_4">
<path transform="matrix(1,0,0,-1,0,361.39799)" d="M69.62187 84.1375H449.4973V317.39875H69.62187Z"/>
</clipPath>
<g id="font_2_50">
<path transform="matrix(.001,0,0,.001,0,0)" d="M503 84V0H30C29 21 33 41 41 61 53 93 72 124 98 156 124 187 163 223 213 265 291 328 343 378 371 416 398 453 412 488 412 522 412 556 399 586 374 610 349 634 317 646 277 646 235 646 201 633 176 608 150 582 137 547 137 502L47 512C53 579 76 630 116 666 156 701 211 719 279 719 347 719 402 699 442 661 482 623 502 576 502 520 502 491 496 463 484 435 472 407 453 378 426 348 399 317 354 275 291 222 238 178 204 148 189 132 174 116 162 100 152 84H503Z"/>
</g>
<clipPath id="clip_5">
<path transform="matrix(.02002,0,0,-.02002,436.06834,296.58549)" d="M-665-325H2000V1006H-665Z"/>
</clipPath>
<clipPath id="clip_6">
<path transform="matrix(.0299,0,0,-.0299,250.0596,347.6511)" d="M-1016-351H1660V1068H-1016Z"/>
</clipPath>
<clipPath id="clip_7">
<path transform="matrix(1,0,0,-1,0,361.39799)" d="M69.62187 84.1375H449.4973V317.39875H69.62187Z"/>
</clipPath>
<clipPath id="clip_8">
<path transform="matrix(1,0,0,-1,0,361.39799)" d="M69.62187 84.1375H449.4973V317.39875H69.62187Z"/>
</clipPath>
<clipPath id="clip_9">
<path transform="matrix(1,0,0,-1,0,361.39799)" d="M69.62187 84.1375H449.4973V317.39875H69.62187Z"/>
</clipPath>
<g id="font_10_67">
<path transform="matrix(.001,0,0,.001,0,0)" d="M695 673 675 569C643 600 610 623 575 639 540 654 502 662 462 662 406 662 357 648 315 622 273 595 236 554 206 500 186 464 171 427 161 388 151 349 146 310 146 270 146 203 163 152 197 118 231 83 281 66 347 66 392 66 435 73 477 87 519 101 559 123 599 153L576 36C537 19 498 7 458-1 418-9 379-13 340-13 246-13 173 12 121 62 68 112 42 183 42 274 42 332 52 389 72 445 92 501 120 552 158 598 198 647 243 683 294 707 345 730 404 742 472 742 514 742 553 736 590 725 627 713 662 696 695 673Z"/>
</g>
<g id="font_10_69">
<path transform="matrix(.001,0,0,.001,0,0)" d="M169 729H630L614 646H251L209 430H557L541 347H193L142 83H513L497 0H27L169 729Z"/>
</g>
<clipPath id="clip_11">
<path transform="matrix(0,-.0299,-.0299,-0,27.29375,186.62985)" d="M-141-240H1128V795H-141Z"/>
</clipPath>
<clipPath id="clip_12">
<path transform="matrix(1,0,0,-1,0,361.39799)" d="M69.62187 84.1375H449.4973V317.39875H69.62187Z"/>
</clipPath>
<clipPath id="clip_13">
<path transform="matrix(1,0,0,-1,0,361.39799)" d="M69.62187 84.1375H449.4973V317.39875H69.62187Z"/>
</clipPath>
<clipPath id="clip_14">
<path transform="matrix(1,0,0,-1,0,361.39799)" d="M69.62187 84.1375H449.4973V317.39875H69.62187Z"/>
</clipPath>
<clipPath id="clip_15">
<path transform="matrix(1,0,0,-1,0,361.39799)" d="M69.62187 84.1375H449.4973V317.39875H69.62187Z"/>
</clipPath>
<clipPath id="clip_16">
<path transform="matrix(1,0,0,-1,0,361.39799)" d="M69.62187 84.1375H449.4973V317.39875H69.62187Z"/>
</clipPath>
<clipPath id="clip_17">
<path transform="matrix(1,0,0,-1,0,361.39799)" d="M69.62187 84.1375H449.4973V317.39875H69.62187Z"/>
</clipPath>
<clipPath id="clip_18">
<path transform="matrix(1,0,0,-1,0,361.39799)" d="M69.62187 84.1375H449.4973V317.39875H69.62187Z"/>
</clipPath>
<clipPath id="clip_19">
<path transform="matrix(1,0,0,-1,202.00272,263.27757)" d="M-7.75-7.75H7.75V7.75H-7.75Z"/>
</clipPath>
<clipPath id="clip_20">
<path transform="matrix(1,0,0,-1,317.1165,259.41615)" d="M-7.75-7.75H7.75V7.75H-7.75Z"/>
</clipPath>
<clipPath id="clip_21">
<path transform="matrix(1,0,0,-1,397.57759,246.24936)" d="M-7.75-7.75H7.75V7.75H-7.75Z"/>
</clipPath>
<clipPath id="clip_22">
<path transform="matrix(1,0,0,-1,432.2303,238.11067)" d="M-7.75-7.75H7.75V7.75H-7.75Z"/>
</clipPath>
<clipPath id="clip_23">
<path transform="matrix(1,0,0,-1,0,361.39799)" d="M69.62187 84.1375H449.4973V317.39875H69.62187Z"/>
</clipPath>
<clipPath id="clip_24">
<path transform="matrix(1,0,0,-1,202.00272,260.37104)" d="M-7.75-7.75H7.75V7.75H-7.75Z"/>
</clipPath>
<clipPath id="clip_25">
<path transform="matrix(1,0,0,-1,317.1165,261.18504)" d="M-7.75-7.75H7.75V7.75H-7.75Z"/>
</clipPath>
<clipPath id="clip_26">
<path transform="matrix(1,0,0,-1,397.57759,224.90764)" d="M-7.75-7.75H7.75V7.75H-7.75Z"/>
</clipPath>
<clipPath id="clip_27">
<path transform="matrix(1,0,0,-1,0,361.39799)" d="M69.62187 84.1375H449.4973V317.39875H69.62187Z"/>
</clipPath>
<clipPath id="clip_28">
<path transform="matrix(1,0,0,-1,202.00272,266.0206)" d="M-7.75-7.75H7.75V7.75H-7.75Z"/>
</clipPath>
<clipPath id="clip_29">
<path transform="matrix(1,0,0,-1,317.1165,259.56037)" d="M-7.75-7.75H7.75V7.75H-7.75Z"/>
</clipPath>
<clipPath id="clip_30">
<path transform="matrix(1,0,0,-1,397.57759,185.22904)" d="M-7.75-7.75H7.75V7.75H-7.75Z"/>
</clipPath>
<clipPath id="clip_31">
<path transform="matrix(1,0,0,-1,432.2303,54.60199)" d="M-7.75-7.75H7.75V7.75H-7.75Z"/>
</clipPath>
<clipPath id="clip_32">
<path transform="matrix(1,0,0,-1,0,361.39799)" d="M69.62187 84.1375H449.4973V317.39875H69.62187Z"/>
</clipPath>
<clipPath id="clip_33">
<path transform="matrix(1,0,0,-1,202.00272,265.95887)" d="M-7.75-7.75H7.75V7.75H-7.75Z"/>
</clipPath>
<clipPath id="clip_34">
<path transform="matrix(1,0,0,-1,317.1165,266.2994)" d="M-7.75-7.75H7.75V7.75H-7.75Z"/>
</clipPath>
<clipPath id="clip_35">
<path transform="matrix(1,0,0,-1,0,361.39799)" d="M69.62187 84.1375H449.4973V317.39875H69.62187Z"/>
</clipPath>
<clipPath id="clip_36">
<path transform="matrix(1,0,0,-1,86.88894,265.71339)" d="M-7.75-7.75H7.75V7.75H-7.75Z"/>
</clipPath>
<clipPath id="clip_37">
<path transform="matrix(1,0,0,-1,317.1165,260.03288)" d="M-7.75-7.75H7.75V7.75H-7.75Z"/>
</clipPath>
<clipPath id="clip_38">
<path transform="matrix(1,0,0,-1,397.57759,190.23938)" d="M-7.75-7.75H7.75V7.75H-7.75Z"/>
</clipPath>
<clipPath id="clip_39">
<path transform="matrix(1,0,0,-1,0,361.39799)" d="M69.62187 84.1375H449.4973V317.39875H69.62187Z"/>
</clipPath>
<clipPath id="clip_40">
<path transform="matrix(1,0,0,-1,86.88894,265.15638)" d="M-7.75-7.75H7.75V7.75H-7.75Z"/>
</clipPath>
<clipPath id="clip_41">
<path transform="matrix(1,0,0,-1,202.00272,265.17283)" d="M-7.75-7.75H7.75V7.75H-7.75Z"/>
</clipPath>
<clipPath id="clip_42">
<path transform="matrix(1,0,0,-1,317.1165,265.82325)" d="M-7.75-7.75H7.75V7.75H-7.75Z"/>
</clipPath>
<g id="font_43_32">
</g>
<g id="font_43_77">
<path transform="matrix(.001,0,0,.001,0,0)" d="M71 0V716H287L417 228 545 716H762V0H628V563L486 0H347L205 563V0H71Z"/>
</g>
<g id="font_43_82">
<path transform="matrix(.001,0,0,.001,0,0)" d="M73 0V716H377C453 716 509 709 544 696 578 683 606 660 627 628 648 595 659 557 659 515 659 461 643 417 611 382 579 347 532 325 470 316 501 298 527 278 547 256 567 234 595 195 629 140L717 0H544L439 156C402 211 377 246 363 261 349 275 335 285 320 291 304 296 280 299 247 299H218V0H73ZM218 413H325C394 413 437 416 454 422 471 428 485 438 495 452 505 466 510 484 510 506 510 530 503 549 490 564 477 578 459 588 436 592 424 594 389 595 331 595H218V413Z"/>
</g>
<g id="font_43_80">
<path transform="matrix(.001,0,0,.001,0,0)" d="M73 0V716H305C393 716 450 712 477 705 517 694 551 671 579 635 607 599 621 552 621 496 621 452 613 415 597 385 581 355 560 331 536 314 512 297 487 286 461 280 427 273 377 270 312 270H217V0H73ZM217 595V392H296C353 392 391 395 410 403 429 410 444 422 455 438 466 454 472 472 472 494 472 520 464 541 449 558 433 574 414 585 391 590 373 593 339 595 287 595H217Z"/>
</g>
<g id="font_43_67">
<path transform="matrix(.001,0,0,.001,0,0)" d="M531 263 671 219C649 141 614 83 564 45 514 7 450-11 374-11 278-11 200 21 139 86 77 150 47 239 47 352 47 470 77 563 139 629 201 695 282 728 382 728 470 728 541 702 596 650 628 619 653 575 669 519L526 484C517 521 499 550 473 572 446 593 413 604 375 604 321 604 278 585 245 547 212 509 196 447 196 362 196 272 212 207 245 169 277 130 320 111 372 111 410 111 443 123 471 148 499 172 519 211 531 263Z"/>
</g>
<g id="font_43_45">
<path transform="matrix(.001,0,0,.001,0,0)" d="M56 191V328H326V191H56Z"/>
</g>
<g id="font_43_66">
<path transform="matrix(.001,0,0,.001,0,0)" d="M73 716H359C415 716 458 713 486 709 514 704 539 694 561 679 583 664 601 644 616 619 630 594 638 566 638 536 638 502 628 471 610 443 592 415 567 394 537 380 581 367 614 345 638 315 661 285 673 249 673 208 673 175 665 143 650 112 634 81 614 56 588 38 562 20 529 9 491 5 467 2 409 0 317 0H73V716ZM218 597V431H313C369 431 403 432 417 434 442 436 462 445 476 459 490 473 497 491 497 515 497 537 490 555 478 569 466 583 448 591 424 594 410 596 369 597 301 597H218ZM218 312V121H352C404 121 437 122 451 125 472 129 489 138 503 153 516 168 523 188 523 214 523 236 517 254 507 269 497 284 482 295 462 302 442 308 400 312 334 312H218Z"/>
</g>
<g id="font_43_97">
<path transform="matrix(.001,0,0,.001,0,0)" d="M174 360 50 383C64 433 88 470 122 494 156 518 206 530 274 530 335 530 381 522 411 508 441 494 462 475 474 453 486 431 493 390 493 331L491 170C491 124 493 91 497 69 501 47 510 24 522 0H387C383 9 378 23 374 41 371 49 369 54 369 57 345 33 319 16 293 5 266-5 238-11 208-11 154-11 112 3 82 32 51 60 36 97 36 142 36 171 43 197 57 220 71 242 90 260 115 272 140 284 177 295 225 305 289 317 333 328 358 338V352C358 378 351 397 338 408 325 419 301 425 265 425 240 425 221 420 207 410 193 400 182 384 174 360ZM358 249C340 243 312 236 274 228 236 220 211 212 200 204 182 191 173 175 173 156 173 136 180 120 194 106 208 92 227 85 249 85 273 85 297 93 320 109 336 121 347 137 353 155 356 166 358 188 358 222V249Z"/>
</g>
<g id="font_43_116">
<path transform="matrix(.001,0,0,.001,0,0)" d="M310 519V409H216V200C216 158 216 133 218 126 220 119 224 113 230 109 236 104 244 102 254 102 266 102 285 106 309 115L321 9C289-4 252-11 212-11 187-11 165-7 145 1 125 9 111 19 102 33 92 46 86 64 83 86 79 102 78 134 78 183V409H15V519H78V622L216 702V519H310Z"/>
</g>
<g id="font_43_99">
<path transform="matrix(.001,0,0,.001,0,0)" d="M524 365 389 341C384 367 373 387 357 401 341 415 320 422 295 422 261 422 233 410 213 387 193 363 183 324 183 269 183 207 193 163 214 138 234 112 262 100 297 100 323 100 344 107 361 122 377 137 389 163 396 199L531 176C517 114 490 67 450 36 410 4 357-11 291-11 215-11 154 12 109 60 64 108 42 174 42 259 42 344 64 410 109 458 154 506 215 530 293 530 356 530 406 516 444 489 481 462 508 421 524 365Z"/>
</g>
<g id="font_43_104">
<path transform="matrix(.001,0,0,.001,0,0)" d="M208 716V453C252 504 305 530 367 530 399 530 427 524 453 512 478 500 497 485 510 467 522 449 531 429 536 407 540 385 543 350 543 304V0H406V274C406 328 403 362 398 377 393 391 384 403 371 412 357 420 341 425 321 425 298 425 278 419 260 408 242 397 228 380 220 358 212 336 208 303 208 260V0H71V716H208Z"/>
</g>
</defs>
<path transform="matrix(1,0,0,-1,0,361.39799)" d="M0 0H467.93028V361.39799H0Z" fill="#ffffff"/>
<path transform="matrix(1,0,0,-1,0,361.39799)" d="M69.62187 84.1375H449.49736V317.39878H69.62187Z" fill="#ffffff"/>
<g clip-path="url(#clip_1)">
<path transform="matrix(1,0,0,-1,0,361.39799)" stroke-width="1" stroke-linecap="round" stroke-linejoin="round" fill="none" stroke="#cccccc" d="M202.00272 84.1375V317.39878"/>
</g>
<use data-text="1" xlink:href="#font_2_49" transform="matrix(28.6,0,0,-28.6,173.50272,316.4632)" fill="#262626"/>
<use data-text="0" xlink:href="#font_2_48" transform="matrix(28.6,0,0,-28.6,189.42258,316.4632)" fill="#262626"/>
<use data-text="4" xlink:href="#font_2_52" transform="matrix(20.02,0,0,-20.02,217.54233,296.5308)" fill="#262626"/>
<g clip-path="url(#clip_3)">
<path transform="matrix(.02002,0,0,-.02002,205.84075,296.5308)" d="M528 312H56V394H528V312Z" fill="#262626"/>
</g>
<g clip-path="url(#clip_4)">
<path transform="matrix(1,0,0,-1,0,361.39799)" stroke-width="1" stroke-linecap="round" stroke-linejoin="round" fill="none" stroke="#cccccc" d="M432.2303 84.1375V317.39878"/>
</g>
<use data-text="1" xlink:href="#font_2_49" transform="matrix(28.6,0,0,-28.6,403.7303,316.51789)" fill="#262626"/>
<use data-text="0" xlink:href="#font_2_48" transform="matrix(28.6,0,0,-28.6,419.65016,316.51789)" fill="#262626"/>
<use data-text="2" xlink:href="#font_2_50" transform="matrix(20.02,0,0,-20.02,447.7699,296.58549)" fill="#262626"/>
<g clip-path="url(#clip_5)">
<path transform="matrix(.02002,0,0,-.02002,436.06834,296.58549)" d="M528 312H56V394H528V312Z" fill="#262626"/>
</g>
<g clip-path="url(#clip_6)">
<path transform="matrix(.0299,0,0,-.0299,250.0596,347.6511)" d="M347 476C297 476 255 458 222 422 186 384 163 335 151 273 138 207 142 156 163 118 183 80 218 62 267 62 314 62 355 80 391 118 426 156 450 207 463 273 474 332 470 382 450 422 431 458 397 476 347 476ZM361 547H659L642 457H541C566 406 572 345 559 273 541 183 505 113 451 63 396 12 329-13 251-13 173-13 116 12 82 63 47 113 39 183 57 273 74 363 110 433 164 484 209 526 275 547 361 547Z" fill="#262626"/>
</g>
<g clip-path="url(#clip_7)">
<path transform="matrix(1,0,0,-1,0,361.39799)" stroke-width="1" stroke-linecap="round" stroke-linejoin="round" fill="none" stroke="#cccccc" d="M69.62187 94.74029H449.49736"/>
</g>
<use data-text="0" xlink:href="#font_2_48" transform="matrix(28.6,0,0,-28.6,44.2,277.0405)" fill="#262626"/>
<g clip-path="url(#clip_8)">
<path transform="matrix(1,0,0,-1,0,361.39799)" stroke-width="1" stroke-linecap="round" stroke-linejoin="round" fill="none" stroke="#cccccc" d="M69.62187 181.48062H449.49736"/>
</g>
<use data-text="1" xlink:href="#font_2_49" transform="matrix(28.6,0,0,-28.6,44.2,190.30017)" fill="#262626"/>
<g clip-path="url(#clip_9)">
<path transform="matrix(1,0,0,-1,0,361.39799)" stroke-width="1" stroke-linecap="round" stroke-linejoin="round" fill="none" stroke="#cccccc" d="M69.62187 268.22099H449.49736"/>
</g>
<use data-text="2" xlink:href="#font_2_50" transform="matrix(28.6,0,0,-28.6,44.2,103.559818)" fill="#262626"/>
<use data-text="C" xlink:href="#font_10_67" transform="matrix(0,-20.93,-20.93,-0,35.496877,164.71324)" fill="#262626"/>
<use data-text="E" xlink:href="#font_10_69" transform="matrix(0,-20.93,-20.93,-0,35.496877,150.11125)" fill="#262626"/>
<g clip-path="url(#clip_11)">
<path transform="matrix(0,-.0299,-.0299,-0,27.29375,186.62985)" d="M325 522 328 520C402 620 493 670 602 670 633 670 659 660 679 641 699 621 709 596 709 566 709 523 690 485 652 452 614 418 575 395 536 383 581 378 618 363 647 339 676 314 691 278 691 232 691 197 680 164 658 134 636 103 608 78 574 59 540 39 504 24 466 14 428 3 392-2 358-2 306-2 265 8 237 29L248 51C274 37 310 31 355 31 415 31 469 51 515 93 561 134 584 180 584 231 584 264 569 291 540 313 511 334 468 345 411 345H345L356 383H375C397 383 421 386 448 392 474 398 501 407 529 419 556 431 579 448 597 470 615 492 625 516 625 544 625 596 596 623 540 623 518 623 494 616 470 604 445 591 425 577 410 561 381 532 356 496 335 454 313 412 291 350 268 270L231 142C217 94 202 59 186 39 170 19 143 6 104 2 91 0 68 0 35 0L44 24C64 24 79 33 90 52 100 70 116 115 136 186L240 549C242 555 243 563 243 573 243 593 229 603 201 603H179L183 627C256 633 318 645 368 662L325 522Z" fill="#262626"/>
</g>
<g clip-path="url(#clip_12)">
<g>
<path transform="matrix(1,0,0,-1,0,361.39799)" d="M202.00272 99.810489V94.74029L317.1165 99.3678 397.57759 114.29627V116.00097L317.1165 103.288867 202.00272 99.810489Z" fill="#440154" fill-opacity=".1"/>
<path transform="matrix(1,0,0,-1,0,361.39799)" stroke-width="1" stroke-linecap="butt" stroke-linejoin="round" fill="none" stroke="#440154" stroke-opacity=".1" d="M202.00272 99.810489V94.74029L317.1165 99.3678 397.57759 114.29627V116.00097L317.1165 103.288867 202.00272 99.810489Z"/>
</g>
</g>
<g clip-path="url(#clip_13)">
<g>
<path transform="matrix(1,0,0,-1,0,361.39799)" d="M202.00272 106.84138V95.2125L317.1165 94.87736V105.54854L202.00272 106.84138Z" fill="#443983" fill-opacity=".1"/>
<path transform="matrix(1,0,0,-1,0,361.39799)" stroke-width="1" stroke-linecap="butt" stroke-linejoin="round" fill="none" stroke="#443983" stroke-opacity=".1" d="M202.00272 106.84138V95.2125L317.1165 94.87736V105.54854L202.00272 106.84138Z"/>
</g>
</g>
<g clip-path="url(#clip_14)">
<g>
<path transform="matrix(1,0,0,-1,0,361.39799)" d="M202.00272 95.866397V95.13288L317.1165 101.51279 397.57759 165.61214V186.72574L317.1165 102.00003 202.00272 95.866397Z" fill="#31688e" fill-opacity=".1"/>
<path transform="matrix(1,0,0,-1,0,361.39799)" stroke-width="1" stroke-linecap="butt" stroke-linejoin="round" fill="none" stroke="#31688e" stroke-opacity=".1" d="M202.00272 95.866397V95.13288L317.1165 101.51279 397.57759 165.61214V186.72574L317.1165 102.00003 202.00272 95.866397Z"/>
</g>
</g>
<g clip-path="url(#clip_15)">
<g>
<path transform="matrix(1,0,0,-1,0,361.39799)" d="M202.00272 95.49367V95.38459L317.1165 94.74029V95.45688L202.00272 95.49367Z" fill="#21918c" fill-opacity=".1"/>
<path transform="matrix(1,0,0,-1,0,361.39799)" stroke-width="1" stroke-linecap="butt" stroke-linejoin="round" fill="none" stroke="#21918c" stroke-opacity=".1" d="M202.00272 95.49367V95.38459L317.1165 94.74029V95.45688L202.00272 95.49367Z"/>
</g>
</g>
<g clip-path="url(#clip_16)">
<g>
<path transform="matrix(1,0,0,-1,0,361.39799)" d="M86.88894 95.8137V95.55549L317.1165 94.74029 397.57759 133.87273V245.73038L317.1165 107.98995 86.88894 95.8137Z" fill="#35b779" fill-opacity=".1"/>
<path transform="matrix(1,0,0,-1,0,361.39799)" stroke-width="1" stroke-linecap="butt" stroke-linejoin="round" fill="none" stroke="#35b779" stroke-opacity=".1" d="M86.88894 95.8137V95.55549L317.1165 94.74029 397.57759 133.87273V245.73038L317.1165 107.98995 86.88894 95.8137Z"/>
</g>
</g>
<g clip-path="url(#clip_17)">
<g>
<path transform="matrix(1,0,0,-1,0,361.39799)" d="M86.88894 96.999668V95.48356L202.00272 95.48576 317.1165 95.01033V96.70359L202.00272 96.96456 86.88894 96.999668Z" fill="#90d743" fill-opacity=".1"/>
<path transform="matrix(1,0,0,-1,0,361.39799)" stroke-width="1" stroke-linecap="butt" stroke-linejoin="round" fill="none" stroke="#90d743" stroke-opacity=".1" d="M86.88894 96.999668V95.48356L202.00272 95.48576 317.1165 95.01033V96.70359L202.00272 96.96456 86.88894 96.999668Z"/>
</g>
</g>
<g clip-path="url(#clip_18)">
<path transform="matrix(1,0,0,-1,0,361.39799)" stroke-width="2.875" stroke-linecap="round" stroke-linejoin="round" fill="none" stroke="#440154" d="M202.00272 98.12042 317.1165 101.98184 397.57759 115.14862 432.2303 123.28731"/>
<g clip-path="url(#clip_19)">
<path transform="matrix(1,0,0,-1,202.00272,263.27757)" d="M0-4C1.060812-4 2.078319-3.578535 2.828427-2.828427 3.578535-2.078319 4-1.060812 4 0 4 1.060812 3.578535 2.078319 2.828427 2.828427 2.078319 3.578535 1.060812 4 0 4-1.060812 4-2.078319 3.578535-2.828427 2.828427-3.578535 2.078319-4 1.060812-4 0-4-1.060812-3.578535-2.078319-2.828427-2.828427-2.078319-3.578535-1.060812-4 0-4Z" fill="#440154"/>
<path transform="matrix(1,0,0,-1,202.00272,263.27757)" stroke-width=".75" stroke-linecap="butt" stroke-linejoin="round" fill="none" stroke="#ffffff" d="M0-4C1.060812-4 2.078319-3.578535 2.828427-2.828427 3.578535-2.078319 4-1.060812 4 0 4 1.060812 3.578535 2.078319 2.828427 2.828427 2.078319 3.578535 1.060812 4 0 4-1.060812 4-2.078319 3.578535-2.828427 2.828427-3.578535 2.078319-4 1.060812-4 0-4-1.060812-3.578535-2.078319-2.828427-2.828427-2.078319-3.578535-1.060812-4 0-4Z"/>
</g>
<g clip-path="url(#clip_20)">
<path transform="matrix(1,0,0,-1,317.1165,259.41615)" d="M0-4C1.060812-4 2.078319-3.578535 2.828427-2.828427 3.578535-2.078319 4-1.060812 4 0 4 1.060812 3.578535 2.078319 2.828427 2.828427 2.078319 3.578535 1.060812 4 0 4-1.060812 4-2.078319 3.578535-2.828427 2.828427-3.578535 2.078319-4 1.060812-4 0-4-1.060812-3.578535-2.078319-2.828427-2.828427-2.078319-3.578535-1.060812-4 0-4Z" fill="#440154"/>
<path transform="matrix(1,0,0,-1,317.1165,259.41615)" stroke-width=".75" stroke-linecap="butt" stroke-linejoin="round" fill="none" stroke="#ffffff" d="M0-4C1.060812-4 2.078319-3.578535 2.828427-2.828427 3.578535-2.078319 4-1.060812 4 0 4 1.060812 3.578535 2.078319 2.828427 2.828427 2.078319 3.578535 1.060812 4 0 4-1.060812 4-2.078319 3.578535-2.828427 2.828427-3.578535 2.078319-4 1.060812-4 0-4-1.060812-3.578535-2.078319-2.828427-2.828427-2.078319-3.578535-1.060812-4 0-4Z"/>
</g>
<g clip-path="url(#clip_21)">
<path transform="matrix(1,0,0,-1,397.57759,246.24936)" d="M0-4C1.060812-4 2.078319-3.578535 2.828427-2.828427 3.578535-2.078319 4-1.060812 4 0 4 1.060812 3.578535 2.078319 2.828427 2.828427 2.078319 3.578535 1.060812 4 0 4-1.060812 4-2.078319 3.578535-2.828427 2.828427-3.578535 2.078319-4 1.060812-4 0-4-1.060812-3.578535-2.078319-2.828427-2.828427-2.078319-3.578535-1.060812-4 0-4Z" fill="#440154"/>
<path transform="matrix(1,0,0,-1,397.57759,246.24936)" stroke-width=".75" stroke-linecap="butt" stroke-linejoin="round" fill="none" stroke="#ffffff" d="M0-4C1.060812-4 2.078319-3.578535 2.828427-2.828427 3.578535-2.078319 4-1.060812 4 0 4 1.060812 3.578535 2.078319 2.828427 2.828427 2.078319 3.578535 1.060812 4 0 4-1.060812 4-2.078319 3.578535-2.828427 2.828427-3.578535 2.078319-4 1.060812-4 0-4-1.060812-3.578535-2.078319-2.828427-2.828427-2.078319-3.578535-1.060812-4 0-4Z"/>
</g>
<g clip-path="url(#clip_22)">
<path transform="matrix(1,0,0,-1,432.2303,238.11067)" d="M0-4C1.060812-4 2.078319-3.578535 2.828427-2.828427 3.578535-2.078319 4-1.060812 4 0 4 1.060812 3.578535 2.078319 2.828427 2.828427 2.078319 3.578535 1.060812 4 0 4-1.060812 4-2.078319 3.578535-2.828427 2.828427-3.578535 2.078319-4 1.060812-4 0-4-1.060812-3.578535-2.078319-2.828427-2.828427-2.078319-3.578535-1.060812-4 0-4Z" fill="#440154"/>
<path transform="matrix(1,0,0,-1,432.2303,238.11067)" stroke-width=".75" stroke-linecap="butt" stroke-linejoin="round" fill="none" stroke="#ffffff" d="M0-4C1.060812-4 2.078319-3.578535 2.828427-2.828427 3.578535-2.078319 4-1.060812 4 0 4 1.060812 3.578535 2.078319 2.828427 2.828427 2.078319 3.578535 1.060812 4 0 4-1.060812 4-2.078319 3.578535-2.828427 2.828427-3.578535 2.078319-4 1.060812-4 0-4-1.060812-3.578535-2.078319-2.828427-2.828427-2.078319-3.578535-1.060812-4 0-4Z"/>
</g>
</g>
<g clip-path="url(#clip_23)">
<path transform="matrix(1,0,0,-1,0,361.39799)" stroke-width="2.875" stroke-linecap="round" stroke-linejoin="round" fill="none" stroke="#443983" d="M202.00272 101.02694 317.1165 100.21295 397.57759 136.49034"/>
<g clip-path="url(#clip_24)">
<path transform="matrix(1,0,0,-1,202.00272,260.37104)" d="M0-4C1.060812-4 2.078319-3.578535 2.828427-2.828427 3.578535-2.078319 4-1.060812 4 0 4 1.060812 3.578535 2.078319 2.828427 2.828427 2.078319 3.578535 1.060812 4 0 4-1.060812 4-2.078319 3.578535-2.828427 2.828427-3.578535 2.078319-4 1.060812-4 0-4-1.060812-3.578535-2.078319-2.828427-2.828427-2.078319-3.578535-1.060812-4 0-4Z" fill="#443983"/>
<path transform="matrix(1,0,0,-1,202.00272,260.37104)" stroke-width=".75" stroke-linecap="butt" stroke-linejoin="round" fill="none" stroke="#ffffff" d="M0-4C1.060812-4 2.078319-3.578535 2.828427-2.828427 3.578535-2.078319 4-1.060812 4 0 4 1.060812 3.578535 2.078319 2.828427 2.828427 2.078319 3.578535 1.060812 4 0 4-1.060812 4-2.078319 3.578535-2.828427 2.828427-3.578535 2.078319-4 1.060812-4 0-4-1.060812-3.578535-2.078319-2.828427-2.828427-2.078319-3.578535-1.060812-4 0-4Z"/>
</g>
<g clip-path="url(#clip_25)">
<path transform="matrix(1,0,0,-1,317.1165,261.18504)" d="M0-4C1.060812-4 2.078319-3.578535 2.828427-2.828427 3.578535-2.078319 4-1.060812 4 0 4 1.060812 3.578535 2.078319 2.828427 2.828427 2.078319 3.578535 1.060812 4 0 4-1.060812 4-2.078319 3.578535-2.828427 2.828427-3.578535 2.078319-4 1.060812-4 0-4-1.060812-3.578535-2.078319-2.828427-2.828427-2.078319-3.578535-1.060812-4 0-4Z" fill="#443983"/>
<path transform="matrix(1,0,0,-1,317.1165,261.18504)" stroke-width=".75" stroke-linecap="butt" stroke-linejoin="round" fill="none" stroke="#ffffff" d="M0-4C1.060812-4 2.078319-3.578535 2.828427-2.828427 3.578535-2.078319 4-1.060812 4 0 4 1.060812 3.578535 2.078319 2.828427 2.828427 2.078319 3.578535 1.060812 4 0 4-1.060812 4-2.078319 3.578535-2.828427 2.828427-3.578535 2.078319-4 1.060812-4 0-4-1.060812-3.578535-2.078319-2.828427-2.828427-2.078319-3.578535-1.060812-4 0-4Z"/>
</g>
<g clip-path="url(#clip_26)">
<path transform="matrix(1,0,0,-1,397.57759,224.90764)" d="M0-4C1.060812-4 2.078319-3.578535 2.828427-2.828427 3.578535-2.078319 4-1.060812 4 0 4 1.060812 3.578535 2.078319 2.828427 2.828427 2.078319 3.578535 1.060812 4 0 4-1.060812 4-2.078319 3.578535-2.828427 2.828427-3.578535 2.078319-4 1.060812-4 0-4-1.060812-3.578535-2.078319-2.828427-2.828427-2.078319-3.578535-1.060812-4 0-4Z" fill="#443983"/>
<path transform="matrix(1,0,0,-1,397.57759,224.90764)" stroke-width=".75" stroke-linecap="butt" stroke-linejoin="round" fill="none" stroke="#ffffff" d="M0-4C1.060812-4 2.078319-3.578535 2.828427-2.828427 3.578535-2.078319 4-1.060812 4 0 4 1.060812 3.578535 2.078319 2.828427 2.828427 2.078319 3.578535 1.060812 4 0 4-1.060812 4-2.078319 3.578535-2.828427 2.828427-3.578535 2.078319-4 1.060812-4 0-4-1.060812-3.578535-2.078319-2.828427-2.828427-2.078319-3.578535-1.060812-4 0-4Z"/>
</g>
</g>
<g clip-path="url(#clip_27)">
<path transform="matrix(1,0,0,-1,0,361.39799)" stroke-width="2.875" stroke-linecap="round" stroke-linejoin="round" fill="none" stroke="#31688e" d="M202.00272 95.37738 317.1165 101.837619 397.57759 176.16895 432.2303 306.796"/>
<g clip-path="url(#clip_28)">
<path transform="matrix(1,0,0,-1,202.00272,266.0206)" d="M0-4C1.060812-4 2.078319-3.578535 2.828427-2.828427 3.578535-2.078319 4-1.060812 4 0 4 1.060812 3.578535 2.078319 2.828427 2.828427 2.078319 3.578535 1.060812 4 0 4-1.060812 4-2.078319 3.578535-2.828427 2.828427-3.578535 2.078319-4 1.060812-4 0-4-1.060812-3.578535-2.078319-2.828427-2.828427-2.078319-3.578535-1.060812-4 0-4Z" fill="#31688e"/>
<path transform="matrix(1,0,0,-1,202.00272,266.0206)" stroke-width=".75" stroke-linecap="butt" stroke-linejoin="round" fill="none" stroke="#ffffff" d="M0-4C1.060812-4 2.078319-3.578535 2.828427-2.828427 3.578535-2.078319 4-1.060812 4 0 4 1.060812 3.578535 2.078319 2.828427 2.828427 2.078319 3.578535 1.060812 4 0 4-1.060812 4-2.078319 3.578535-2.828427 2.828427-3.578535 2.078319-4 1.060812-4 0-4-1.060812-3.578535-2.078319-2.828427-2.828427-2.078319-3.578535-1.060812-4 0-4Z"/>
</g>
<g clip-path="url(#clip_29)">
<path transform="matrix(1,0,0,-1,317.1165,259.56037)" d="M0-4C1.060812-4 2.078319-3.578535 2.828427-2.828427 3.578535-2.078319 4-1.060812 4 0 4 1.060812 3.578535 2.078319 2.828427 2.828427 2.078319 3.578535 1.060812 4 0 4-1.060812 4-2.078319 3.578535-2.828427 2.828427-3.578535 2.078319-4 1.060812-4 0-4-1.060812-3.578535-2.078319-2.828427-2.828427-2.078319-3.578535-1.060812-4 0-4Z" fill="#31688e"/>
<path transform="matrix(1,0,0,-1,317.1165,259.56037)" stroke-width=".75" stroke-linecap="butt" stroke-linejoin="round" fill="none" stroke="#ffffff" d="M0-4C1.060812-4 2.078319-3.578535 2.828427-2.828427 3.578535-2.078319 4-1.060812 4 0 4 1.060812 3.578535 2.078319 2.828427 2.828427 2.078319 3.578535 1.060812 4 0 4-1.060812 4-2.078319 3.578535-2.828427 2.828427-3.578535 2.078319-4 1.060812-4 0-4-1.060812-3.578535-2.078319-2.828427-2.828427-2.078319-3.578535-1.060812-4 0-4Z"/>
</g>
<g clip-path="url(#clip_30)">
<path transform="matrix(1,0,0,-1,397.57759,185.22904)" d="M0-4C1.060812-4 2.078319-3.578535 2.828427-2.828427 3.578535-2.078319 4-1.060812 4 0 4 1.060812 3.578535 2.078319 2.828427 2.828427 2.078319 3.578535 1.060812 4 0 4-1.060812 4-2.078319 3.578535-2.828427 2.828427-3.578535 2.078319-4 1.060812-4 0-4-1.060812-3.578535-2.078319-2.828427-2.828427-2.078319-3.578535-1.060812-4 0-4Z" fill="#31688e"/>
<path transform="matrix(1,0,0,-1,397.57759,185.22904)" stroke-width=".75" stroke-linecap="butt" stroke-linejoin="round" fill="none" stroke="#ffffff" d="M0-4C1.060812-4 2.078319-3.578535 2.828427-2.828427 3.578535-2.078319 4-1.060812 4 0 4 1.060812 3.578535 2.078319 2.828427 2.828427 2.078319 3.578535 1.060812 4 0 4-1.060812 4-2.078319 3.578535-2.828427 2.828427-3.578535 2.078319-4 1.060812-4 0-4-1.060812-3.578535-2.078319-2.828427-2.828427-2.078319-3.578535-1.060812-4 0-4Z"/>
</g>
<g clip-path="url(#clip_31)">
<path transform="matrix(1,0,0,-1,432.2303,54.60199)" d="M0-4C1.060812-4 2.078319-3.578535 2.828427-2.828427 3.578535-2.078319 4-1.060812 4 0 4 1.060812 3.578535 2.078319 2.828427 2.828427 2.078319 3.578535 1.060812 4 0 4-1.060812 4-2.078319 3.578535-2.828427 2.828427-3.578535 2.078319-4 1.060812-4 0-4-1.060812-3.578535-2.078319-2.828427-2.828427-2.078319-3.578535-1.060812-4 0-4Z" fill="#31688e"/>
<path transform="matrix(1,0,0,-1,432.2303,54.60199)" stroke-width=".75" stroke-linecap="butt" stroke-linejoin="round" fill="none" stroke="#ffffff" d="M0-4C1.060812-4 2.078319-3.578535 2.828427-2.828427 3.578535-2.078319 4-1.060812 4 0 4 1.060812 3.578535 2.078319 2.828427 2.828427 2.078319 3.578535 1.060812 4 0 4-1.060812 4-2.078319 3.578535-2.828427 2.828427-3.578535 2.078319-4 1.060812-4 0-4-1.060812-3.578535-2.078319-2.828427-2.828427-2.078319-3.578535-1.060812-4 0-4Z"/>
</g>
</g>
<g clip-path="url(#clip_32)">
<path transform="matrix(1,0,0,-1,0,361.39799)" stroke-width="2.875" stroke-linecap="round" stroke-linejoin="round" fill="none" stroke="#21918c" d="M202.00272 95.43913 317.1165 95.09858"/>
<g clip-path="url(#clip_33)">
<path transform="matrix(1,0,0,-1,202.00272,265.95887)" d="M0-4C1.060812-4 2.078319-3.578535 2.828427-2.828427 3.578535-2.078319 4-1.060812 4 0 4 1.060812 3.578535 2.078319 2.828427 2.828427 2.078319 3.578535 1.060812 4 0 4-1.060812 4-2.078319 3.578535-2.828427 2.828427-3.578535 2.078319-4 1.060812-4 0-4-1.060812-3.578535-2.078319-2.828427-2.828427-2.078319-3.578535-1.060812-4 0-4Z" fill="#21918c"/>
<path transform="matrix(1,0,0,-1,202.00272,265.95887)" stroke-width=".75" stroke-linecap="butt" stroke-linejoin="round" fill="none" stroke="#ffffff" d="M0-4C1.060812-4 2.078319-3.578535 2.828427-2.828427 3.578535-2.078319 4-1.060812 4 0 4 1.060812 3.578535 2.078319 2.828427 2.828427 2.078319 3.578535 1.060812 4 0 4-1.060812 4-2.078319 3.578535-2.828427 2.828427-3.578535 2.078319-4 1.060812-4 0-4-1.060812-3.578535-2.078319-2.828427-2.828427-2.078319-3.578535-1.060812-4 0-4Z"/>
</g>
<g clip-path="url(#clip_34)">
<path transform="matrix(1,0,0,-1,317.1165,266.2994)" d="M0-4C1.060812-4 2.078319-3.578535 2.828427-2.828427 3.578535-2.078319 4-1.060812 4 0 4 1.060812 3.578535 2.078319 2.828427 2.828427 2.078319 3.578535 1.060812 4 0 4-1.060812 4-2.078319 3.578535-2.828427 2.828427-3.578535 2.078319-4 1.060812-4 0-4-1.060812-3.578535-2.078319-2.828427-2.828427-2.078319-3.578535-1.060812-4 0-4Z" fill="#21918c"/>
<path transform="matrix(1,0,0,-1,317.1165,266.2994)" stroke-width=".75" stroke-linecap="butt" stroke-linejoin="round" fill="none" stroke="#ffffff" d="M0-4C1.060812-4 2.078319-3.578535 2.828427-2.828427 3.578535-2.078319 4-1.060812 4 0 4 1.060812 3.578535 2.078319 2.828427 2.828427 2.078319 3.578535 1.060812 4 0 4-1.060812 4-2.078319 3.578535-2.828427 2.828427-3.578535 2.078319-4 1.060812-4 0-4-1.060812-3.578535-2.078319-2.828427-2.828427-2.078319-3.578535-1.060812-4 0-4Z"/>
</g>
</g>
<g clip-path="url(#clip_35)">
<path transform="matrix(1,0,0,-1,0,361.39799)" stroke-width="2.875" stroke-linecap="round" stroke-linejoin="round" fill="none" stroke="#35b779" d="M86.88894 95.68459 317.1165 101.36512 397.57759 171.15862"/>
<g clip-path="url(#clip_36)">
<path transform="matrix(1,0,0,-1,86.88894,265.71339)" d="M0-4C1.060812-4 2.078319-3.578535 2.828427-2.828427 3.578535-2.078319 4-1.060812 4 0 4 1.060812 3.578535 2.078319 2.828427 2.828427 2.078319 3.578535 1.060812 4 0 4-1.060812 4-2.078319 3.578535-2.828427 2.828427-3.578535 2.078319-4 1.060812-4 0-4-1.060812-3.578535-2.078319-2.828427-2.828427-2.078319-3.578535-1.060812-4 0-4Z" fill="#35b779"/>
<path transform="matrix(1,0,0,-1,86.88894,265.71339)" stroke-width=".75" stroke-linecap="butt" stroke-linejoin="round" fill="none" stroke="#ffffff" d="M0-4C1.060812-4 2.078319-3.578535 2.828427-2.828427 3.578535-2.078319 4-1.060812 4 0 4 1.060812 3.578535 2.078319 2.828427 2.828427 2.078319 3.578535 1.060812 4 0 4-1.060812 4-2.078319 3.578535-2.828427 2.828427-3.578535 2.078319-4 1.060812-4 0-4-1.060812-3.578535-2.078319-2.828427-2.828427-2.078319-3.578535-1.060812-4 0-4Z"/>
</g>
<g clip-path="url(#clip_37)">
<path transform="matrix(1,0,0,-1,317.1165,260.03288)" d="M0-4C1.060812-4 2.078319-3.578535 2.828427-2.828427 3.578535-2.078319 4-1.060812 4 0 4 1.060812 3.578535 2.078319 2.828427 2.828427 2.078319 3.578535 1.060812 4 0 4-1.060812 4-2.078319 3.578535-2.828427 2.828427-3.578535 2.078319-4 1.060812-4 0-4-1.060812-3.578535-2.078319-2.828427-2.828427-2.078319-3.578535-1.060812-4 0-4Z" fill="#35b779"/>
<path transform="matrix(1,0,0,-1,317.1165,260.03288)" stroke-width=".75" stroke-linecap="butt" stroke-linejoin="round" fill="none" stroke="#ffffff" d="M0-4C1.060812-4 2.078319-3.578535 2.828427-2.828427 3.578535-2.078319 4-1.060812 4 0 4 1.060812 3.578535 2.078319 2.828427 2.828427 2.078319 3.578535 1.060812 4 0 4-1.060812 4-2.078319 3.578535-2.828427 2.828427-3.578535 2.078319-4 1.060812-4 0-4-1.060812-3.578535-2.078319-2.828427-2.828427-2.078319-3.578535-1.060812-4 0-4Z"/>
</g>
<g clip-path="url(#clip_38)">
<path transform="matrix(1,0,0,-1,397.57759,190.23938)" d="M0-4C1.060812-4 2.078319-3.578535 2.828427-2.828427 3.578535-2.078319 4-1.060812 4 0 4 1.060812 3.578535 2.078319 2.828427 2.828427 2.078319 3.578535 1.060812 4 0 4-1.060812 4-2.078319 3.578535-2.828427 2.828427-3.578535 2.078319-4 1.060812-4 0-4-1.060812-3.578535-2.078319-2.828427-2.828427-2.078319-3.578535-1.060812-4 0-4Z" fill="#35b779"/>
<path transform="matrix(1,0,0,-1,397.57759,190.23938)" stroke-width=".75" stroke-linecap="butt" stroke-linejoin="round" fill="none" stroke="#ffffff" d="M0-4C1.060812-4 2.078319-3.578535 2.828427-2.828427 3.578535-2.078319 4-1.060812 4 0 4 1.060812 3.578535 2.078319 2.828427 2.828427 2.078319 3.578535 1.060812 4 0 4-1.060812 4-2.078319 3.578535-2.828427 2.828427-3.578535 2.078319-4 1.060812-4 0-4-1.060812-3.578535-2.078319-2.828427-2.828427-2.078319-3.578535-1.060812-4 0-4Z"/>
</g>
</g>
<g clip-path="url(#clip_39)">
<path transform="matrix(1,0,0,-1,0,361.39799)" stroke-width="2.875" stroke-linecap="round" stroke-linejoin="round" fill="none" stroke="#90d743" d="M86.88894 96.24161 202.00272 96.22516 317.1165 95.57475"/>
<g clip-path="url(#clip_40)">
<path transform="matrix(1,0,0,-1,86.88894,265.15638)" d="M0-4C1.060812-4 2.078319-3.578535 2.828427-2.828427 3.578535-2.078319 4-1.060812 4 0 4 1.060812 3.578535 2.078319 2.828427 2.828427 2.078319 3.578535 1.060812 4 0 4-1.060812 4-2.078319 3.578535-2.828427 2.828427-3.578535 2.078319-4 1.060812-4 0-4-1.060812-3.578535-2.078319-2.828427-2.828427-2.078319-3.578535-1.060812-4 0-4Z" fill="#90d743"/>
<path transform="matrix(1,0,0,-1,86.88894,265.15638)" stroke-width=".75" stroke-linecap="butt" stroke-linejoin="round" fill="none" stroke="#ffffff" d="M0-4C1.060812-4 2.078319-3.578535 2.828427-2.828427 3.578535-2.078319 4-1.060812 4 0 4 1.060812 3.578535 2.078319 2.828427 2.828427 2.078319 3.578535 1.060812 4 0 4-1.060812 4-2.078319 3.578535-2.828427 2.828427-3.578535 2.078319-4 1.060812-4 0-4-1.060812-3.578535-2.078319-2.828427-2.828427-2.078319-3.578535-1.060812-4 0-4Z"/>
</g>
<g clip-path="url(#clip_41)">
<path transform="matrix(1,0,0,-1,202.00272,265.17283)" d="M0-4C1.060812-4 2.078319-3.578535 2.828427-2.828427 3.578535-2.078319 4-1.060812 4 0 4 1.060812 3.578535 2.078319 2.828427 2.828427 2.078319 3.578535 1.060812 4 0 4-1.060812 4-2.078319 3.578535-2.828427 2.828427-3.578535 2.078319-4 1.060812-4 0-4-1.060812-3.578535-2.078319-2.828427-2.828427-2.078319-3.578535-1.060812-4 0-4Z" fill="#90d743"/>
<path transform="matrix(1,0,0,-1,202.00272,265.17283)" stroke-width=".75" stroke-linecap="butt" stroke-linejoin="round" fill="none" stroke="#ffffff" d="M0-4C1.060812-4 2.078319-3.578535 2.828427-2.828427 3.578535-2.078319 4-1.060812 4 0 4 1.060812 3.578535 2.078319 2.828427 2.828427 2.078319 3.578535 1.060812 4 0 4-1.060812 4-2.078319 3.578535-2.828427 2.828427-3.578535 2.078319-4 1.060812-4 0-4-1.060812-3.578535-2.078319-2.828427-2.828427-2.078319-3.578535-1.060812-4 0-4Z"/>
</g>
<g clip-path="url(#clip_42)">
<path transform="matrix(1,0,0,-1,317.1165,265.82325)" d="M0-4C1.060812-4 2.078319-3.578535 2.828427-2.828427 3.578535-2.078319 4-1.060812 4 0 4 1.060812 3.578535 2.078319 2.828427 2.828427 2.078319 3.578535 1.060812 4 0 4-1.060812 4-2.078319 3.578535-2.828427 2.828427-3.578535 2.078319-4 1.060812-4 0-4-1.060812-3.578535-2.078319-2.828427-2.828427-2.078319-3.578535-1.060812-4 0-4Z" fill="#90d743"/>
<path transform="matrix(1,0,0,-1,317.1165,265.82325)" stroke-width=".75" stroke-linecap="butt" stroke-linejoin="round" fill="none" stroke="#ffffff" d="M0-4C1.060812-4 2.078319-3.578535 2.828427-2.828427 3.578535-2.078319 4-1.060812 4 0 4 1.060812 3.578535 2.078319 2.828427 2.828427 2.078319 3.578535 1.060812 4 0 4-1.060812 4-2.078319 3.578535-2.828427 2.828427-3.578535 2.078319-4 1.060812-4 0-4-1.060812-3.578535-2.078319-2.828427-2.828427-2.078319-3.578535-1.060812-4 0-4Z"/>
</g>
</g>
<path transform="matrix(1,0,0,-1,0,361.39799)" stroke-width="1.25" stroke-linecap="square" stroke-miterlimit="10" stroke-linejoin="miter" fill="none" stroke="#cccccc" d="M69.62187 84.1375V317.39878"/>
<path transform="matrix(1,0,0,-1,0,361.39799)" stroke-width="1.25" stroke-linecap="square" stroke-miterlimit="10" stroke-linejoin="miter" fill="none" stroke="#cccccc" d="M449.49736 84.1375V317.39878"/>
<path transform="matrix(1,0,0,-1,0,361.39799)" stroke-width="1.25" stroke-linecap="square" stroke-miterlimit="10" stroke-linejoin="miter" fill="none" stroke="#cccccc" d="M69.62187 84.1375H449.49736"/>
<path transform="matrix(1,0,0,-1,0,361.39799)" stroke-width="1.25" stroke-linecap="square" stroke-miterlimit="10" stroke-linejoin="miter" fill="none" stroke="#cccccc" d="M69.62187 317.39878H449.49736"/>
<use data-text=" " xlink:href="#font_43_32" transform="matrix(29.9,0,0,-29.9,156.65335,28.668763)" fill="#262626"/>
<use data-text="M" xlink:href="#font_43_77" transform="matrix(29.9,0,0,-29.9,164.96555,28.668763)" fill="#262626"/>
<use data-text="R" xlink:href="#font_43_82" transform="matrix(29.9,0,0,-29.9,189.87226,28.668763)" fill="#262626"/>
<use data-text="P" xlink:href="#font_43_80" transform="matrix(29.9,0,0,-29.9,211.46006,28.668763)" fill="#262626"/>
<use data-text="C" xlink:href="#font_43_67" transform="matrix(29.9,0,0,-29.9,231.40335,28.668763)" fill="#262626"/>
<use data-text=" " xlink:href="#font_43_32" transform="matrix(29.9,0,0,-29.9,252.99115,28.668763)" fill="#262626"/>
<use data-text="-" xlink:href="#font_43_45" transform="matrix(29.9,0,0,-29.9,261.30335,28.668763)" fill="#262626"/>
<use data-text=" " xlink:href="#font_43_32" transform="matrix(29.9,0,0,-29.9,271.26008,28.668763)" fill="#262626"/>
<use data-text="B" xlink:href="#font_43_66" transform="matrix(29.9,0,0,-29.9,279.57228,28.668763)" fill="#262626"/>
<use data-text="a" xlink:href="#font_43_97" transform="matrix(29.9,0,0,-29.9,301.16007,28.668763)" fill="#262626"/>
<use data-text="t" xlink:href="#font_43_116" transform="matrix(29.9,0,0,-29.9,317.7845,28.668763)" fill="#262626"/>
<use data-text="c" xlink:href="#font_43_99" transform="matrix(29.9,0,0,-29.9,327.74116,28.668763)" fill="#262626"/>
<use data-text="h" xlink:href="#font_43_104" transform="matrix(29.9,0,0,-29.9,344.36558,28.668763)" fill="#262626"/>
</svg>
