<svg xmlns="http://www.w3.org/2000/svg" xmlns:xlink="http://www.w3.org/1999/xlink" xmlns:inkscape="http://www.inkscape.org/namespaces/inkscape" version="1.1" width="483.85215" height="361.77299" viewBox="0 0 483.85215 361.77299">
<defs>
<clipPath id="clip_1">
<path transform="matrix(1,0,0,-1,0,361.77299)" d="M85.54375 84.1375H465.4192V317.39875H85.54375Z"/>
</clipPath>
<g id="font_2_49">
<path transform="matrix(.001,0,0,.001,0,0)" d="M373 0H285V560C263 540 235 519 201 499 167 479 136 464 109 454V539C158 562 201 590 238 623 274 655 300 687 316 719H373V0Z"/>
</g>
<g id="font_2_48">
<path transform="matrix(.001,0,0,.001,0,0)" d="M42 353C42 437 50 505 68 557 85 609 111 649 145 677 179 705 223 719 275 719 313 719 347 711 376 695 404 679 428 657 447 628 466 599 481 564 492 522 502 480 508 423 508 353 508 269 499 201 482 149 465 97 439 58 405 30 371 2 327-11 275-11 205-11 151 13 112 62 65 121 42 218 42 353ZM132 353C132 235 145 157 173 118 200 79 234 60 274 60 314 60 348 79 376 118 404 157 418 235 418 353 418 471 404 549 376 588 348 626 314 646 274 646 233 646 201 629 177 595 147 551 132 470 132 353Z"/>
</g>
<g id="font_2_51">
<path transform="matrix(.001,0,0,.001,0,0)" d="M42 189 130 201C140 151 157 115 181 93 205 71 235 60 270 60 311 60 346 74 374 103 402 131 417 167 417 209 417 249 403 283 377 309 351 335 317 349 277 349 260 349 239 345 215 339L225 416C231 415 235 415 239 415 276 415 310 424 340 444 370 464 385 494 385 535 385 567 374 593 352 614 330 635 302 646 268 646 234 646 205 635 182 614 159 592 145 560 139 518L51 533C61 592 86 638 124 670 162 702 209 719 266 719 305 719 341 710 374 693 406 676 431 653 449 625 467 596 476 565 476 533 476 501 467 473 451 448 434 422 409 402 377 388 419 378 451 357 475 327 499 296 511 257 511 211 511 149 488 96 442 53 396 9 339-12 270-12 206-12 154 6 113 44 71 81 48 129 42 189Z"/>
</g>
<clipPath id="clip_3">
<path transform="matrix(.02002,0,0,-.02002,221.76262,296.96049)" d="M-665-325H2000V1006H-665Z"/>
</clipPath>
<clipPath id="clip_4">
<path transform="matrix(1,0,0,-1,0,361.77299)" d="M85.54375 84.1375H465.4192V317.39875H85.54375Z"/>
</clipPath>
<clipPath id="clip_5">
<path transform="matrix(.02002,0,0,-.02002,451.9902,296.96049)" d="M-665-325H2000V1006H-665Z"/>
</clipPath>
<clipPath id="clip_6">
<path transform="matrix(.0299,0,0,-.0299,265.98149,348.0261)" d="M-1016-351H1660V1068H-1016Z"/>
</clipPath>
<clipPath id="clip_7">
<path transform="matrix(1,0,0,-1,0,361.77299)" d="M85.54375 84.1375H465.4192V317.39875H85.54375Z"/>
</clipPath>
<clipPath id="clip_8">
<path transform="matrix(1,0,0,-1,0,361.77299)" d="M85.54375 84.1375H465.4192V317.39875H85.54375Z"/>
</clipPath>
<clipPath id="clip_9">
<path transform="matrix(1,0,0,-1,0,361.77299)" d="M85.54375 84.1375H465.4192V317.39875H85.54375Z"/>
</clipPath>
<g id="font_2_50">
<path transform="matrix(.001,0,0,.001,0,0)" d="M503 84V0H30C29 21 33 41 41 61 53 93 72 124 98 156 124 187 163 223 213 265 291 328 343 378 371 416 398 453 412 488 412 522 412 556 399 586 374 610 349 634 317 646 277 646 235 646 201 633 176 608 150 582 137 547 137 502L47 512C53 579 76 630 116 666 156 701 211 719 279 719 347 719 402 699 442 661 482 623 502 576 502 520 502 491 496 463 484 435 472 407 453 378 426 348 399 317 354 275 291 222 238 178 204 148 189 132 174 116 162 100 152 84H503Z"/>
</g>
<g id="font_10_67">
<path transform="matrix(.001,0,0,.001,0,0)" d="M695 673 675 569C643 600 610 623 575 639 540 654 502 662 462 662 406 662 357 648 315 622 273 595 236 554 206 500 186 464 171 427 161 388 151 349 146 310 146 270 146 203 163 152 197 118 231 83 281 66 347 66 392 66 435 73 477 87 519 101 559 123 599 153L576 36C537 19 498 7 458-1 418-9 379-13 340-13 246-13 173 12 121 62 68 112 42 183 42 274 42 332 52 389 72 445 92 501 120 552 158 598 198 647 243 683 294 707 345 730 404 742 472 742 514 742 553 736 590 725 627 713 662 696 695 673Z"/>
</g>
<g id="font_10_69">
<path transform="matrix(.001,0,0,.001,0,0)" d="M169 729H630L614 646H251L209 430H557L541 347H193L142 83H513L497 0H27L169 729Z"/>
</g>
<clipPath id="clip_11">
<path transform="matrix(0,-.0299,-.0299,-0,27.29375,187.00485)" d="M-141-240H1128V795H-141Z"/>
</clipPath>
<clipPath id="clip_12">
<path transform="matrix(1,0,0,-1,0,361.77299)" d="M85.54375 84.1375H465.4192V317.39875H85.54375Z"/>
</clipPath>
<clipPath id="clip_13">
<path transform="matrix(1,0,0,-1,0,361.77299)" d="M85.54375 84.1375H465.4192V317.39875H85.54375Z"/>
</clipPath>
<clipPath id="clip_14">
<path transform="matrix(1,0,0,-1,0,361.77299)" d="M85.54375 84.1375H465.4192V317.39875H85.54375Z"/>
</clipPath>
<clipPath id="clip_15">
<path transform="matrix(1,0,0,-1,0,361.77299)" d="M85.54375 84.1375H465.4192V317.39875H85.54375Z"/>
</clipPath>
<clipPath id="clip_16">
<path transform="matrix(1,0,0,-1,0,361.77299)" d="M85.54375 84.1375H465.4192V317.39875H85.54375Z"/>
</clipPath>
<clipPath id="clip_17">
<path transform="matrix(1,0,0,-1,0,361.77299)" d="M85.54375 84.1375H465.4192V317.39875H85.54375Z"/>
</clipPath>
<clipPath id="clip_18">
<path transform="matrix(1,0,0,-1,102.810817,178.11527)" d="M-7.75-7.75H7.75V7.75H-7.75Z"/>
</clipPath>
<clipPath id="clip_19">
<path transform="matrix(1,0,0,-1,157.73404,184.87929)" d="M-7.75-7.75H7.75V7.75H-7.75Z"/>
</clipPath>
<clipPath id="clip_20">
<path transform="matrix(1,0,0,-1,217.92459,140.6792)" d="M-7.75-7.75H7.75V7.75H-7.75Z"/>
</clipPath>
<clipPath id="clip_21">
<path transform="matrix(1,0,0,-1,272.8478,191.43762)" d="M-7.75-7.75H7.75V7.75H-7.75Z"/>
</clipPath>
<clipPath id="clip_22">
<path transform="matrix(1,0,0,-1,333.03837,169.2521)" d="M-7.75-7.75H7.75V7.75H-7.75Z"/>
</clipPath>
<clipPath id="clip_23">
<path transform="matrix(1,0,0,-1,387.96159,188.9753)" d="M-7.75-7.75H7.75V7.75H-7.75Z"/>
</clipPath>
<clipPath id="clip_24">
<path transform="matrix(1,0,0,-1,448.15214,198.56357)" d="M-7.75-7.75H7.75V7.75H-7.75Z"/>
</clipPath>
<clipPath id="clip_25">
<path transform="matrix(1,0,0,-1,0,361.77299)" d="M85.54375 84.1375H465.4192V317.39875H85.54375Z"/>
</clipPath>
<clipPath id="clip_26">
<path transform="matrix(1,0,0,-1,102.810817,224.83725)" d="M-7.75-7.75H7.75V7.75H-7.75Z"/>
</clipPath>
<clipPath id="clip_27">
<path transform="matrix(1,0,0,-1,157.73404,200.15468)" d="M-7.75-7.75H7.75V7.75H-7.75Z"/>
</clipPath>
<clipPath id="clip_28">
<path transform="matrix(1,0,0,-1,217.92459,196.08795)" d="M-7.75-7.75H7.75V7.75H-7.75Z"/>
</clipPath>
<clipPath id="clip_29">
<path transform="matrix(1,0,0,-1,272.8478,135.83126)" d="M-7.75-7.75H7.75V7.75H-7.75Z"/>
</clipPath>
<clipPath id="clip_30">
<path transform="matrix(1,0,0,-1,333.03837,132.89504)" d="M-7.75-7.75H7.75V7.75H-7.75Z"/>
</clipPath>
<clipPath id="clip_31">
<path transform="matrix(1,0,0,-1,387.96159,199.43686)" d="M-7.75-7.75H7.75V7.75H-7.75Z"/>
</clipPath>
<clipPath id="clip_32">
<path transform="matrix(1,0,0,-1,448.15214,179.43071)" d="M-7.75-7.75H7.75V7.75H-7.75Z"/>
</clipPath>
<clipPath id="clip_33">
<path transform="matrix(1,0,0,-1,0,361.77299)" d="M85.54375 84.1375H465.4192V317.39875H85.54375Z"/>
</clipPath>
<clipPath id="clip_34">
<path transform="matrix(1,0,0,-1,102.810817,259.67723)" d="M-7.75-7.75H7.75V7.75H-7.75Z"/>
</clipPath>
<clipPath id="clip_35">
<path transform="matrix(1,0,0,-1,157.73404,261.8766)" d="M-7.75-7.75H7.75V7.75H-7.75Z"/>
</clipPath>
<clipPath id="clip_36">
<path transform="matrix(1,0,0,-1,217.92459,253.76012)" d="M-7.75-7.75H7.75V7.75H-7.75Z"/>
</clipPath>
<clipPath id="clip_37">
<path transform="matrix(1,0,0,-1,272.8478,251.47386)" d="M-7.75-7.75H7.75V7.75H-7.75Z"/>
</clipPath>
<clipPath id="clip_38">
<path transform="matrix(1,0,0,-1,333.03837,223.08766)" d="M-7.75-7.75H7.75V7.75H-7.75Z"/>
</clipPath>
<clipPath id="clip_39">
<path transform="matrix(1,0,0,-1,387.96159,164.80643)" d="M-7.75-7.75H7.75V7.75H-7.75Z"/>
</clipPath>
<clipPath id="clip_40">
<path transform="matrix(1,0,0,-1,448.15214,156.38675)" d="M-7.75-7.75H7.75V7.75H-7.75Z"/>
</clipPath>
<clipPath id="clip_41">
<path transform="matrix(1,0,0,-1,0,361.77299)" d="M85.54375 84.1375H465.4192V317.39875H85.54375Z"/>
</clipPath>
<clipPath id="clip_42">
<path transform="matrix(1,0,0,-1,102.810817,266.7766)" d="M-7.75-7.75H7.75V7.75H-7.75Z"/>
</clipPath>
<clipPath id="clip_43">
<path transform="matrix(1,0,0,-1,157.73404,266.77149)" d="M-7.75-7.75H7.75V7.75H-7.75Z"/>
</clipPath>
<clipPath id="clip_44">
<path transform="matrix(1,0,0,-1,217.92459,266.7512)" d="M-7.75-7.75H7.75V7.75H-7.75Z"/>
</clipPath>
<clipPath id="clip_45">
<path transform="matrix(1,0,0,-1,272.8478,266.73)" d="M-7.75-7.75H7.75V7.75H-7.75Z"/>
</clipPath>
<clipPath id="clip_46">
<path transform="matrix(1,0,0,-1,333.03837,266.4627)" d="M-7.75-7.75H7.75V7.75H-7.75Z"/>
</clipPath>
<clipPath id="clip_47">
<path transform="matrix(1,0,0,-1,387.96159,265.78355)" d="M-7.75-7.75H7.75V7.75H-7.75Z"/>
</clipPath>
<clipPath id="clip_48">
<path transform="matrix(1,0,0,-1,448.15214,261.15824)" d="M-7.75-7.75H7.75V7.75H-7.75Z"/>
</clipPath>
<clipPath id="clip_49">
<path transform="matrix(1,0,0,-1,0,361.77299)" d="M85.54375 84.1375H465.4192V317.39875H85.54375Z"/>
</clipPath>
<clipPath id="clip_50">
<path transform="matrix(1,0,0,-1,102.810817,267.03269)" d="M-7.75-7.75H7.75V7.75H-7.75Z"/>
</clipPath>
<clipPath id="clip_51">
<path transform="matrix(1,0,0,-1,157.73404,267.03269)" d="M-7.75-7.75H7.75V7.75H-7.75Z"/>
</clipPath>
<clipPath id="clip_52">
<path transform="matrix(1,0,0,-1,217.92459,267.03269)" d="M-7.75-7.75H7.75V7.75H-7.75Z"/>
</clipPath>
<clipPath id="clip_53">
<path transform="matrix(1,0,0,-1,272.8478,267.03269)" d="M-7.75-7.75H7.75V7.75H-7.75Z"/>
</clipPath>
<clipPath id="clip_54">
<path transform="matrix(1,0,0,-1,333.03837,267.03269)" d="M-7.75-7.75H7.75V7.75H-7.75Z"/>
</clipPath>
<clipPath id="clip_55">
<path transform="matrix(1,0,0,-1,387.96159,267.03205)" d="M-7.75-7.75H7.75V7.75H-7.75Z"/>
</clipPath>
<clipPath id="clip_56">
<path transform="matrix(1,0,0,-1,448.15214,266.2539)" d="M-7.75-7.75H7.75V7.75H-7.75Z"/>
</clipPath>
<g id="font_57_82">
<path transform="matrix(.001,0,0,.001,0,0)" d="M73 0V716H377C453 716 509 709 544 696 578 683 606 660 627 628 648 595 659 557 659 515 659 461 643 417 611 382 579 347 532 325 470 316 501 298 527 278 547 256 567 234 595 195 629 140L717 0H544L439 156C402 211 377 246 363 261 349 275 335 285 320 291 304 296 280 299 247 299H218V0H73ZM218 413H325C394 413 437 416 454 422 471 428 485 438 495 452 505 466 510 484 510 506 510 530 503 549 490 564 477 578 459 588 436 592 424 594 389 595 331 595H218V413Z"/>
</g>
<g id="font_57_101">
<path transform="matrix(.001,0,0,.001,0,0)" d="M372 165 509 142C491 92 463 54 425 28 387 2 340-11 283-11 193-11 126 18 83 77 49 123 32 183 32 255 32 341 54 408 99 457 144 505 201 530 270 530 346 530 407 504 452 453 496 402 518 324 516 220H172C173 179 184 147 205 125 226 102 253 91 285 91 306 91 324 96 339 108 353 120 364 139 372 165ZM380 304C378 343 368 373 349 394 329 414 306 425 278 425 248 425 223 414 203 392 183 370 174 341 175 304H380Z"/>
</g>
<g id="font_57_115">
<path transform="matrix(.001,0,0,.001,0,0)" d="M23 148 161 169C167 142 179 122 197 108 215 94 240 87 272 87 307 87 334 93 352 107 364 116 370 128 370 144 370 154 366 162 360 169 353 175 338 182 314 188 203 212 133 234 104 254 62 282 42 321 42 371 42 415 59 453 95 484 131 514 186 530 261 530 331 530 384 518 419 495 453 472 477 438 490 393L361 369C355 389 345 404 329 415 313 426 291 432 263 432 227 432 201 427 186 417 175 409 170 400 170 389 170 379 174 370 184 364 196 354 238 341 311 325 384 308 435 288 465 264 493 240 508 206 508 162 508 114 488 74 448 40 408 6 350-11 272-11 201-11 145 3 104 31 62 59 35 98 23 148Z"/>
</g>
<g id="font_57_78">
<path transform="matrix(.001,0,0,.001,0,0)" d="M74 0V716H215L508 238V716H642V0H497L208 467V0H74Z"/>
</g>
<g id="font_57_116">
<path transform="matrix(.001,0,0,.001,0,0)" d="M310 519V409H216V200C216 158 216 133 218 126 220 119 224 113 230 109 236 104 244 102 254 102 266 102 285 106 309 115L321 9C289-4 252-11 212-11 187-11 165-7 145 1 125 9 111 19 102 33 92 46 86 64 83 86 79 102 78 134 78 183V409H15V519H78V622L216 702V519H310Z"/>
</g>
<g id="font_57_45">
<path transform="matrix(.001,0,0,.001,0,0)" d="M56 191V328H326V191H56Z"/>
</g>
<g id="font_57_50">
<path transform="matrix(.001,0,0,.001,0,0)" d="M506 127V0H25C30 48 46 93 72 137 98 180 149 237 226 309 288 366 326 405 340 426 358 454 368 482 368 510 368 540 359 564 343 580 327 596 304 605 275 605 246 605 223 596 207 579 190 561 180 533 178 493L41 507C49 582 74 636 117 669 160 702 214 719 279 719 349 719 405 699 445 661 485 623 506 576 506 520 506 487 500 456 488 427 476 398 458 368 434 336 417 314 387 284 344 244 300 204 273 178 261 165 249 152 240 139 233 127H506Z"/>
</g>
<g id="font_57_48">
<path transform="matrix(.001,0,0,.001,0,0)" d="M274 719C343 719 397 694 437 645 483 586 507 489 507 353 507 217 483 120 437 61 397 13 343-11 274-11 204-11 148 15 106 68 63 121 42 216 42 354 42 489 65 586 112 646 150 694 204 719 274 719ZM274 605C258 605 243 599 230 589 216 578 206 559 200 532 190 496 186 437 186 353 186 269 190 211 198 180 206 148 217 127 230 117 243 107 258 102 274 102 290 102 305 107 318 117 331 127 341 146 349 174 358 209 363 269 363 353 363 437 358 494 350 526 342 557 331 578 318 589 305 599 290 605 274 605Z"/>
</g>
<g id="font_57_32">
</g>
<g id="font_57_40">
<path transform="matrix(.001,0,0,.001,0,0)" d="M299-209H205C155-134 117-56 91 24 65 105 52 183 52 259 52 353 68 442 101 526 129 599 164 666 207 728H301C256 629 225 545 209 476 192 407 184 334 184 256 184 202 188 148 198 92 208 36 221-16 239-66 250-99 270-147 299-209Z"/>
</g>
<g id="font_57_65">
<path transform="matrix(.001,0,0,.001,0,0)" d="M718 0H561L499 163H212L153 0H0L279 716H432L718 0ZM452 283 354 549 257 283H452Z"/>
</g>
<g id="font_57_100">
<path transform="matrix(.001,0,0,.001,0,0)" d="M547 0H420V76C398 46 373 24 345 10 316-4 287-11 258-11 198-11 146 12 104 60 62 108 41 175 41 261 41 349 61 415 103 461 144 507 196 530 260 530 318 530 368 506 410 458V716H547V0ZM181 271C181 215 188 175 204 150 226 114 257 97 297 97 328 97 355 110 377 137 399 163 411 203 411 257 411 317 400 360 378 386 356 412 329 425 296 425 263 425 236 412 214 386 192 360 181 322 181 271Z"/>
</g>
<g id="font_57_97">
<path transform="matrix(.001,0,0,.001,0,0)" d="M174 360 50 383C64 433 88 470 122 494 156 518 206 530 274 530 335 530 381 522 411 508 441 494 462 475 474 453 486 431 493 390 493 331L491 170C491 124 493 91 497 69 501 47 510 24 522 0H387C383 9 378 23 374 41 371 49 369 54 369 57 345 33 319 16 293 5 266-5 238-11 208-11 154-11 112 3 82 32 51 60 36 97 36 142 36 171 43 197 57 220 71 242 90 260 115 272 140 284 177 295 225 305 289 317 333 328 358 338V352C358 378 351 397 338 408 325 419 301 425 265 425 240 425 221 420 207 410 193 400 182 384 174 360ZM358 249C340 243 312 236 274 228 236 220 211 212 200 204 182 191 173 175 173 156 173 136 180 120 194 106 208 92 227 85 249 85 273 85 297 93 320 109 336 121 347 137 353 155 356 166 358 188 358 222V249Z"/>
</g>
<g id="font_57_109">
<path transform="matrix(.001,0,0,.001,0,0)" d="M62 519H188V448C233 502 287 530 350 530 382 530 411 523 436 509 460 495 480 475 496 448 518 475 543 495 569 509 595 523 624 530 654 530 692 530 724 522 751 507 777 491 797 469 810 439 819 417 824 381 824 332V0H687V296C687 348 682 381 673 396 660 415 640 425 614 425 594 425 576 419 560 407 543 395 531 378 523 356 515 333 512 297 512 249V0H375V284C375 334 372 367 367 382 362 396 355 407 345 414 335 421 321 425 303 425 281 425 262 419 246 408 229 396 217 380 210 359 202 337 199 302 199 252V0H62V519Z"/>
</g>
<g id="font_57_41">
<path transform="matrix(.001,0,0,.001,0,0)" d="M34-209C60-151 79-107 90-76 101-45 111-10 121 30 131 70 138 108 142 144 146 180 149 218 149 256 149 334 140 407 124 476 108 545 77 629 33 728H126C175 658 213 583 240 505 267 427 281 347 281 267 281 199 270 126 249 48 224-38 184-124 128-209H34Z"/>
</g>
<g id="font_57_66">
<path transform="matrix(.001,0,0,.001,0,0)" d="M73 716H359C415 716 458 713 486 709 514 704 539 694 561 679 583 664 601 644 616 619 630 594 638 566 638 536 638 502 628 471 610 443 592 415 567 394 537 380 581 367 614 345 638 315 661 285 673 249 673 208 673 175 665 143 650 112 634 81 614 56 588 38 562 20 529 9 491 5 467 2 409 0 317 0H73V716ZM218 597V431H313C369 431 403 432 417 434 442 436 462 445 476 459 490 473 497 491 497 515 497 537 490 555 478 569 466 583 448 591 424 594 410 596 369 597 301 597H218ZM218 312V121H352C404 121 437 122 451 125 472 129 489 138 503 153 516 168 523 188 523 214 523 236 517 254 507 269 497 284 482 295 462 302 442 308 400 312 334 312H218Z"/>
</g>
<g id="font_57_99">
<path transform="matrix(.001,0,0,.001,0,0)" d="M524 365 389 341C384 367 373 387 357 401 341 415 320 422 295 422 261 422 233 410 213 387 193 363 183 324 183 269 183 207 193 163 214 138 234 112 262 100 297 100 323 100 344 107 361 122 377 137 389 163 396 199L531 176C517 114 490 67 450 36 410 4 357-11 291-11 215-11 154 12 109 60 64 108 42 174 42 259 42 344 64 410 109 458 154 506 215 530 293 530 356 530 406 516 444 489 481 462 508 421 524 365Z"/>
</g>
<g id="font_57_104">
<path transform="matrix(.001,0,0,.001,0,0)" d="M208 716V453C252 504 305 530 367 530 399 530 427 524 453 512 478 500 497 485 510 467 522 449 531 429 536 407 540 385 543 350 543 304V0H406V274C406 328 403 362 398 377 393 391 384 403 371 412 357 420 341 425 321 425 298 425 278 419 260 408 242 397 228 380 220 358 212 336 208 303 208 260V0H71V716H208Z"/>
</g>
</defs>
<path transform="matrix(1,0,0,-1,0,361.77299)" d="M0 0H483.85215V361.77299H0Z" fill="#ffffff"/>
<path transform="matrix(1,0,0,-1,0,361.77299)" d="M85.54375 84.1375H465.41923V317.39878H85.54375Z" fill="#ffffff"/>
<g clip-path="url(#clip_1)">
<path transform="matrix(1,0,0,-1,0,361.77299)" stroke-width="1" stroke-linecap="round" stroke-linejoin="round" fill="none" stroke="#cccccc" d="M217.92459 84.1375V317.39878"/>
</g>
<use data-text="1" xlink:href="#font_2_49" transform="matrix(28.6,0,0,-28.6,189.42459,316.89289)" fill="#262626"/>
<use data-text="0" xlink:href="#font_2_48" transform="matrix(28.6,0,0,-28.6,205.34445,316.89289)" fill="#262626"/>
<use data-text="3" xlink:href="#font_2_51" transform="matrix(20.02,0,0,-20.02,233.4642,296.96049)" fill="#262626"/>
<g clip-path="url(#clip_3)">
<path transform="matrix(.02002,0,0,-.02002,221.76262,296.96049)" d="M528 312H56V394H528V312Z" fill="#262626"/>
</g>
<g clip-path="url(#clip_4)">
<path transform="matrix(1,0,0,-1,0,361.77299)" stroke-width="1" stroke-linecap="round" stroke-linejoin="round" fill="none" stroke="#cccccc" d="M448.15217 84.1375V317.39878"/>
</g>
<use data-text="1" xlink:href="#font_2_49" transform="matrix(28.6,0,0,-28.6,419.65217,316.89289)" fill="#262626"/>
<use data-text="0" xlink:href="#font_2_48" transform="matrix(28.6,0,0,-28.6,435.57203,316.89289)" fill="#262626"/>
<use data-text="1" xlink:href="#font_2_49" transform="matrix(20.02,0,0,-20.02,463.69178,296.96049)" fill="#262626"/>
<g clip-path="url(#clip_5)">
<path transform="matrix(.02002,0,0,-.02002,451.9902,296.96049)" d="M528 312H56V394H528V312Z" fill="#262626"/>
</g>
<g clip-path="url(#clip_6)">
<path transform="matrix(.0299,0,0,-.0299,265.98149,348.0261)" d="M347 476C297 476 255 458 222 422 186 384 163 335 151 273 138 207 142 156 163 118 183 80 218 62 267 62 314 62 355 80 391 118 426 156 450 207 463 273 474 332 470 382 450 422 431 458 397 476 347 476ZM361 547H659L642 457H541C566 406 572 345 559 273 541 183 505 113 451 63 396 12 329-13 251-13 173-13 116 12 82 63 47 113 39 183 57 273 74 363 110 433 164 484 209 526 275 547 361 547Z" fill="#262626"/>
</g>
<g clip-path="url(#clip_7)">
<path transform="matrix(1,0,0,-1,0,361.77299)" stroke-width="1" stroke-linecap="round" stroke-linejoin="round" fill="none" stroke="#cccccc" d="M85.54375 94.74029H465.41923"/>
</g>
<use data-text="0" xlink:href="#font_2_48" transform="matrix(28.6,0,0,-28.6,60.121877,277.4155)" fill="#262626"/>
<g clip-path="url(#clip_8)">
<path transform="matrix(1,0,0,-1,0,361.77299)" stroke-width="1" stroke-linecap="round" stroke-linejoin="round" fill="none" stroke="#cccccc" d="M85.54375 197.18889H465.41923"/>
</g>
<use data-text="1" xlink:href="#font_2_49" transform="matrix(28.6,0,0,-28.6,44.2,174.9669)" fill="#262626"/>
<use data-text="0" xlink:href="#font_2_48" transform="matrix(28.6,0,0,-28.6,60.1016,174.9669)" fill="#262626"/>
<g clip-path="url(#clip_9)">
<path transform="matrix(1,0,0,-1,0,361.77299)" stroke-width="1" stroke-linecap="round" stroke-linejoin="round" fill="none" stroke="#cccccc" d="M85.54375 299.63749H465.41923"/>
</g>
<use data-text="2" xlink:href="#font_2_50" transform="matrix(28.6,0,0,-28.6,44.2,72.51831)" fill="#262626"/>
<use data-text="0" xlink:href="#font_2_48" transform="matrix(28.6,0,0,-28.6,60.1016,72.51831)" fill="#262626"/>
<use data-text="C" xlink:href="#font_10_67" transform="matrix(0,-20.93,-20.93,-0,35.496877,165.08824)" fill="#262626"/>
<use data-text="E" xlink:href="#font_10_69" transform="matrix(0,-20.93,-20.93,-0,35.496877,150.48625)" fill="#262626"/>
<g clip-path="url(#clip_11)">
<path transform="matrix(0,-.0299,-.0299,-0,27.29375,187.00485)" d="M325 522 328 520C402 620 493 670 602 670 633 670 659 660 679 641 699 621 709 596 709 566 709 523 690 485 652 452 614 418 575 395 536 383 581 378 618 363 647 339 676 314 691 278 691 232 691 197 680 164 658 134 636 103 608 78 574 59 540 39 504 24 466 14 428 3 392-2 358-2 306-2 265 8 237 29L248 51C274 37 310 31 355 31 415 31 469 51 515 93 561 134 584 180 584 231 584 264 569 291 540 313 511 334 468 345 411 345H345L356 383H375C397 383 421 386 448 392 474 398 501 407 529 419 556 431 579 448 597 470 615 492 625 516 625 544 625 596 596 623 540 623 518 623 494 616 470 604 445 591 425 577 410 561 381 532 356 496 335 454 313 412 291 350 268 270L231 142C217 94 202 59 186 39 170 19 143 6 104 2 91 0 68 0 35 0L44 24C64 24 79 33 90 52 100 70 116 115 136 186L240 549C242 555 243 563 243 573 243 593 229 603 201 603H179L183 627C256 633 318 645 368 662L325 522Z" fill="#262626"/>
</g>
<g clip-path="url(#clip_12)">
<g>
<path transform="matrix(1,0,0,-1,0,361.77299)" d="M102.810817 206.32053V169.13335L157.73406 167.5889 217.92459 165.6042 272.84785 153.74147 333.03837 176.8066 387.9616 149.58829 448.15217 149.87189V178.10335L387.9616 218.8531 333.03837 203.11287 272.84785 191.11751 217.92459 290.1561 157.73406 185.78998 102.810817 206.32053Z" fill="#440154" fill-opacity=".1"/>
<path transform="matrix(1,0,0,-1,0,361.77299)" stroke-width="1" stroke-linecap="butt" stroke-linejoin="round" fill="none" stroke="#440154" stroke-opacity=".1" d="M102.810817 206.32053V169.13335L157.73406 167.5889 217.92459 165.6042 272.84785 153.74147 333.03837 176.8066 387.9616 149.58829 448.15217 149.87189V178.10335L387.9616 218.8531 333.03837 203.11287 272.84785 191.11751 217.92459 290.1561 157.73406 185.78998 102.810817 206.32053Z"/>
</g>
</g>
<g clip-path="url(#clip_13)">
<g>
<path transform="matrix(1,0,0,-1,0,361.77299)" d="M102.810817 182.73963V111.19906L157.73406 109.925548 217.92459 146.24497 272.84785 178.34122 333.03837 176.24178 387.9616 152.67642 448.15217 160.9452V202.64348L387.9616 168.55748 333.03837 256.0503 272.84785 306.796 217.92459 186.7917 157.73406 200.82842 102.810817 182.73963Z" fill="#414487" fill-opacity=".1"/>
<path transform="matrix(1,0,0,-1,0,361.77299)" stroke-width="1" stroke-linecap="butt" stroke-linejoin="round" fill="none" stroke="#414487" stroke-opacity=".1" d="M102.810817 182.73963V111.19906L157.73406 109.925548 217.92459 146.24497 272.84785 178.34122 333.03837 176.24178 387.9616 152.67642 448.15217 160.9452V202.64348L387.9616 168.55748 333.03837 256.0503 272.84785 306.796 217.92459 186.7917 157.73406 200.82842 102.810817 182.73963Z"/>
</g>
</g>
<g clip-path="url(#clip_14)">
<g>
<path transform="matrix(1,0,0,-1,0,361.77299)" d="M102.810817 107.12178V98.90904L157.73406 96.76099 217.92459 97.78532 272.84785 102.210918 333.03837 121.511798 387.9616 184.8704 448.15217 196.7723V214.00016L387.9616 216.31063 333.03837 167.34462 272.84785 119.73768 217.92459 117.458438 157.73406 105.09328 102.810817 107.12178Z" fill="#2a788e" fill-opacity=".1"/>
<path transform="matrix(1,0,0,-1,0,361.77299)" stroke-width="1" stroke-linecap="butt" stroke-linejoin="round" fill="none" stroke="#2a788e" stroke-opacity=".1" d="M102.810817 107.12178V98.90904L157.73406 96.76099 217.92459 97.78532 272.84785 102.210918 333.03837 121.511798 387.9616 184.8704 448.15217 196.7723V214.00016L387.9616 216.31063 333.03837 167.34462 272.84785 119.73768 217.92459 117.458438 157.73406 105.09328 102.810817 107.12178Z"/>
</g>
</g>
<g clip-path="url(#clip_15)">
<g>
<path transform="matrix(1,0,0,-1,0,361.77299)" d="M102.810817 95.014438V94.982128L157.73406 94.983089 217.92459 94.99586 272.84785 95.026279 333.03837 95.12747 387.9616 95.65505 448.15217 97.56949V105.08226L387.9616 96.46285 333.03837 95.6575 272.84785 95.072689 217.92459 95.04633 157.73406 95.02193 102.810817 95.014438Z" fill="#22a884" fill-opacity=".1"/>
<path transform="matrix(1,0,0,-1,0,361.77299)" stroke-width="1" stroke-linecap="butt" stroke-linejoin="round" fill="none" stroke="#22a884" stroke-opacity=".1" d="M102.810817 95.014438V94.982128L157.73406 94.983089 217.92459 94.99586 272.84785 95.026279 333.03837 95.12747 387.9616 95.65505 448.15217 97.56949V105.08226L387.9616 96.46285 333.03837 95.6575 272.84785 95.072689 217.92459 95.04633 157.73406 95.02193 102.810817 95.014438Z"/>
</g>
</g>
<g clip-path="url(#clip_16)">
<g>
<path transform="matrix(1,0,0,-1,0,361.77299)" d="M102.810817 94.74029V94.74029H157.73406 217.92459 272.84785 333.03837 387.9616L448.15217 94.828067V95.999668L387.9616 94.7422 333.03837 94.74029H272.84785 217.92459 157.73406 102.810817Z" fill="#7ad151" fill-opacity=".1"/>
<path transform="matrix(1,0,0,-1,0,361.77299)" stroke-width="1" stroke-linecap="butt" stroke-linejoin="round" fill="none" stroke="#7ad151" stroke-opacity=".1" d="M102.810817 94.74029V94.74029H157.73406 217.92459 272.84785 333.03837 387.9616L448.15217 94.828067V95.999668L387.9616 94.7422 333.03837 94.74029H272.84785 217.92459 157.73406 102.810817Z"/>
</g>
</g>
<g clip-path="url(#clip_17)">
<path transform="matrix(1,0,0,-1,0,361.77299)" stroke-width="2.875" stroke-linecap="round" stroke-linejoin="round" fill="none" stroke="#440154" d="M102.810817 183.65772 157.73406 176.89369 217.92459 221.09378 272.84785 170.33536 333.03837 192.52089 387.9616 172.79769 448.15217 163.20943"/>
<g clip-path="url(#clip_18)">
<path transform="matrix(1,0,0,-1,102.810817,178.11527)" d="M0-4C1.060812-4 2.078319-3.578535 2.828427-2.828427 3.578535-2.078319 4-1.060812 4 0 4 1.060812 3.578535 2.078319 2.828427 2.828427 2.078319 3.578535 1.060812 4 0 4-1.060812 4-2.078319 3.578535-2.828427 2.828427-3.578535 2.078319-4 1.060812-4 0-4-1.060812-3.578535-2.078319-2.828427-2.828427-2.078319-3.578535-1.060812-4 0-4Z" fill="#440154"/>
<path transform="matrix(1,0,0,-1,102.810817,178.11527)" stroke-width=".75" stroke-linecap="butt" stroke-linejoin="round" fill="none" stroke="#ffffff" d="M0-4C1.060812-4 2.078319-3.578535 2.828427-2.828427 3.578535-2.078319 4-1.060812 4 0 4 1.060812 3.578535 2.078319 2.828427 2.828427 2.078319 3.578535 1.060812 4 0 4-1.060812 4-2.078319 3.578535-2.828427 2.828427-3.578535 2.078319-4 1.060812-4 0-4-1.060812-3.578535-2.078319-2.828427-2.828427-2.078319-3.578535-1.060812-4 0-4Z"/>
</g>
<g clip-path="url(#clip_19)">
<path transform="matrix(1,0,0,-1,157.73404,184.87929)" d="M0-4C1.060812-4 2.078319-3.578535 2.828427-2.828427 3.578535-2.078319 4-1.060812 4 0 4 1.060812 3.578535 2.078319 2.828427 2.828427 2.078319 3.578535 1.060812 4 0 4-1.060812 4-2.078319 3.578535-2.828427 2.828427-3.578535 2.078319-4 1.060812-4 0-4-1.060812-3.578535-2.078319-2.828427-2.828427-2.078319-3.578535-1.060812-4 0-4Z" fill="#440154"/>
<path transform="matrix(1,0,0,-1,157.73404,184.87929)" stroke-width=".75" stroke-linecap="butt" stroke-linejoin="round" fill="none" stroke="#ffffff" d="M0-4C1.060812-4 2.078319-3.578535 2.828427-2.828427 3.578535-2.078319 4-1.060812 4 0 4 1.060812 3.578535 2.078319 2.828427 2.828427 2.078319 3.578535 1.060812 4 0 4-1.060812 4-2.078319 3.578535-2.828427 2.828427-3.578535 2.078319-4 1.060812-4 0-4-1.060812-3.578535-2.078319-2.828427-2.828427-2.078319-3.578535-1.060812-4 0-4Z"/>
</g>
<g clip-path="url(#clip_20)">
<path transform="matrix(1,0,0,-1,217.92459,140.6792)" d="M0-4C1.060812-4 2.078319-3.578535 2.828427-2.828427 3.578535-2.078319 4-1.060812 4 0 4 1.060812 3.578535 2.078319 2.828427 2.828427 2.078319 3.578535 1.060812 4 0 4-1.060812 4-2.078319 3.578535-2.828427 2.828427-3.578535 2.078319-4 1.060812-4 0-4-1.060812-3.578535-2.078319-2.828427-2.828427-2.078319-3.578535-1.060812-4 0-4Z" fill="#440154"/>
<path transform="matrix(1,0,0,-1,217.92459,140.6792)" stroke-width=".75" stroke-linecap="butt" stroke-linejoin="round" fill="none" stroke="#ffffff" d="M0-4C1.060812-4 2.078319-3.578535 2.828427-2.828427 3.578535-2.078319 4-1.060812 4 0 4 1.060812 3.578535 2.078319 2.828427 2.828427 2.078319 3.578535 1.060812 4 0 4-1.060812 4-2.078319 3.578535-2.828427 2.828427-3.578535 2.078319-4 1.060812-4 0-4-1.060812-3.578535-2.078319-2.828427-2.828427-2.078319-3.578535-1.060812-4 0-4Z"/>
</g>
<g clip-path="url(#clip_21)">
<path transform="matrix(1,0,0,-1,272.8478,191.43762)" d="M0-4C1.060812-4 2.078319-3.578535 2.828427-2.828427 3.578535-2.078319 4-1.060812 4 0 4 1.060812 3.578535 2.078319 2.828427 2.828427 2.078319 3.578535 1.060812 4 0 4-1.060812 4-2.078319 3.578535-2.828427 2.828427-3.578535 2.078319-4 1.060812-4 0-4-1.060812-3.578535-2.078319-2.828427-2.828427-2.078319-3.578535-1.060812-4 0-4Z" fill="#440154"/>
<path transform="matrix(1,0,0,-1,272.8478,191.43762)" stroke-width=".75" stroke-linecap="butt" stroke-linejoin="round" fill="none" stroke="#ffffff" d="M0-4C1.060812-4 2.078319-3.578535 2.828427-2.828427 3.578535-2.078319 4-1.060812 4 0 4 1.060812 3.578535 2.078319 2.828427 2.828427 2.078319 3.578535 1.060812 4 0 4-1.060812 4-2.078319 3.578535-2.828427 2.828427-3.578535 2.078319-4 1.060812-4 0-4-1.060812-3.578535-2.078319-2.828427-2.828427-2.078319-3.578535-1.060812-4 0-4Z"/>
</g>
<g clip-path="url(#clip_22)">
<path transform="matrix(1,0,0,-1,333.03837,169.2521)" d="M0-4C1.060812-4 2.078319-3.578535 2.828427-2.828427 3.578535-2.078319 4-1.060812 4 0 4 1.060812 3.578535 2.078319 2.828427 2.828427 2.078319 3.578535 1.060812 4 0 4-1.060812 4-2.078319 3.578535-2.828427 2.828427-3.578535 2.078319-4 1.060812-4 0-4-1.060812-3.578535-2.078319-2.828427-2.828427-2.078319-3.578535-1.060812-4 0-4Z" fill="#440154"/>
<path transform="matrix(1,0,0,-1,333.03837,169.2521)" stroke-width=".75" stroke-linecap="butt" stroke-linejoin="round" fill="none" stroke="#ffffff" d="M0-4C1.060812-4 2.078319-3.578535 2.828427-2.828427 3.578535-2.078319 4-1.060812 4 0 4 1.060812 3.578535 2.078319 2.828427 2.828427 2.078319 3.578535 1.060812 4 0 4-1.060812 4-2.078319 3.578535-2.828427 2.828427-3.578535 2.078319-4 1.060812-4 0-4-1.060812-3.578535-2.078319-2.828427-2.828427-2.078319-3.578535-1.060812-4 0-4Z"/>
</g>
<g clip-path="url(#clip_23)">
<path transform="matrix(1,0,0,-1,387.96159,188.9753)" d="M0-4C1.060812-4 2.078319-3.578535 2.828427-2.828427 3.578535-2.078319 4-1.060812 4 0 4 1.060812 3.578535 2.078319 2.828427 2.828427 2.078319 3.578535 1.060812 4 0 4-1.060812 4-2.078319 3.578535-2.828427 2.828427-3.578535 2.078319-4 1.060812-4 0-4-1.060812-3.578535-2.078319-2.828427-2.828427-2.078319-3.578535-1.060812-4 0-4Z" fill="#440154"/>
<path transform="matrix(1,0,0,-1,387.96159,188.9753)" stroke-width=".75" stroke-linecap="butt" stroke-linejoin="round" fill="none" stroke="#ffffff" d="M0-4C1.060812-4 2.078319-3.578535 2.828427-2.828427 3.578535-2.078319 4-1.060812 4 0 4 1.060812 3.578535 2.078319 2.828427 2.828427 2.078319 3.578535 1.060812 4 0 4-1.060812 4-2.078319 3.578535-2.828427 2.828427-3.578535 2.078319-4 1.060812-4 0-4-1.060812-3.578535-2.078319-2.828427-2.828427-2.078319-3.578535-1.060812-4 0-4Z"/>
</g>
<g clip-path="url(#clip_24)">
<path transform="matrix(1,0,0,-1,448.15214,198.56357)" d="M0-4C1.060812-4 2.078319-3.578535 2.828427-2.828427 3.578535-2.078319 4-1.060812 4 0 4 1.060812 3.578535 2.078319 2.828427 2.828427 2.078319 3.578535 1.060812 4 0 4-1.060812 4-2.078319 3.578535-2.828427 2.828427-3.578535 2.078319-4 1.060812-4 0-4-1.060812-3.578535-2.078319-2.828427-2.828427-2.078319-3.578535-1.060812-4 0-4Z" fill="#440154"/>
<path transform="matrix(1,0,0,-1,448.15214,198.56357)" stroke-width=".75" stroke-linecap="butt" stroke-linejoin="round" fill="none" stroke="#ffffff" d="M0-4C1.060812-4 2.078319-3.578535 2.828427-2.828427 3.578535-2.078319 4-1.060812 4 0 4 1.060812 3.578535 2.078319 2.828427 2.828427 2.078319 3.578535 1.060812 4 0 4-1.060812 4-2.078319 3.578535-2.828427 2.828427-3.578535 2.078319-4 1.060812-4 0-4-1.060812-3.578535-2.078319-2.828427-2.828427-2.078319-3.578535-1.060812-4 0-4Z"/>
</g>
</g>
<g clip-path="url(#clip_25)">
<path transform="matrix(1,0,0,-1,0,361.77299)" stroke-width="2.875" stroke-linecap="round" stroke-linejoin="round" fill="none" stroke="#414487" d="M102.810817 136.93573 157.73406 161.61832 217.92459 165.68505 272.84785 225.94174 333.03837 228.87796 387.9616 162.33614 448.15217 182.34229"/>
<g clip-path="url(#clip_26)">
<path transform="matrix(1,0,0,-1,102.810817,224.83725)" d="M0-4C1.060812-4 2.078319-3.578535 2.828427-2.828427 3.578535-2.078319 4-1.060812 4 0 4 1.060812 3.578535 2.078319 2.828427 2.828427 2.078319 3.578535 1.060812 4 0 4-1.060812 4-2.078319 3.578535-2.828427 2.828427-3.578535 2.078319-4 1.060812-4 0-4-1.060812-3.578535-2.078319-2.828427-2.828427-2.078319-3.578535-1.060812-4 0-4Z" fill="#414487"/>
<path transform="matrix(1,0,0,-1,102.810817,224.83725)" stroke-width=".75" stroke-linecap="butt" stroke-linejoin="round" fill="none" stroke="#ffffff" d="M0-4C1.060812-4 2.078319-3.578535 2.828427-2.828427 3.578535-2.078319 4-1.060812 4 0 4 1.060812 3.578535 2.078319 2.828427 2.828427 2.078319 3.578535 1.060812 4 0 4-1.060812 4-2.078319 3.578535-2.828427 2.828427-3.578535 2.078319-4 1.060812-4 0-4-1.060812-3.578535-2.078319-2.828427-2.828427-2.078319-3.578535-1.060812-4 0-4Z"/>
</g>
<g clip-path="url(#clip_27)">
<path transform="matrix(1,0,0,-1,157.73404,200.15468)" d="M0-4C1.060812-4 2.078319-3.578535 2.828427-2.828427 3.578535-2.078319 4-1.060812 4 0 4 1.060812 3.578535 2.078319 2.828427 2.828427 2.078319 3.578535 1.060812 4 0 4-1.060812 4-2.078319 3.578535-2.828427 2.828427-3.578535 2.078319-4 1.060812-4 0-4-1.060812-3.578535-2.078319-2.828427-2.828427-2.078319-3.578535-1.060812-4 0-4Z" fill="#414487"/>
<path transform="matrix(1,0,0,-1,157.73404,200.15468)" stroke-width=".75" stroke-linecap="butt" stroke-linejoin="round" fill="none" stroke="#ffffff" d="M0-4C1.060812-4 2.078319-3.578535 2.828427-2.828427 3.578535-2.078319 4-1.060812 4 0 4 1.060812 3.578535 2.078319 2.828427 2.828427 2.078319 3.578535 1.060812 4 0 4-1.060812 4-2.078319 3.578535-2.828427 2.828427-3.578535 2.078319-4 1.060812-4 0-4-1.060812-3.578535-2.078319-2.828427-2.828427-2.078319-3.578535-1.060812-4 0-4Z"/>
</g>
<g clip-path="url(#clip_28)">
<path transform="matrix(1,0,0,-1,217.92459,196.08795)" d="M0-4C1.060812-4 2.078319-3.578535 2.828427-2.828427 3.578535-2.078319 4-1.060812 4 0 4 1.060812 3.578535 2.078319 2.828427 2.828427 2.078319 3.578535 1.060812 4 0 4-1.060812 4-2.078319 3.578535-2.828427 2.828427-3.578535 2.078319-4 1.060812-4 0-4-1.060812-3.578535-2.078319-2.828427-2.828427-2.078319-3.578535-1.060812-4 0-4Z" fill="#414487"/>
<path transform="matrix(1,0,0,-1,217.92459,196.08795)" stroke-width=".75" stroke-linecap="butt" stroke-linejoin="round" fill="none" stroke="#ffffff" d="M0-4C1.060812-4 2.078319-3.578535 2.828427-2.828427 3.578535-2.078319 4-1.060812 4 0 4 1.060812 3.578535 2.078319 2.828427 2.828427 2.078319 3.578535 1.060812 4 0 4-1.060812 4-2.078319 3.578535-2.828427 2.828427-3.578535 2.078319-4 1.060812-4 0-4-1.060812-3.578535-2.078319-2.828427-2.828427-2.078319-3.578535-1.060812-4 0-4Z"/>
</g>
<g clip-path="url(#clip_29)">
<path transform="matrix(1,0,0,-1,272.8478,135.83126)" d="M0-4C1.060812-4 2.078319-3.578535 2.828427-2.828427 3.578535-2.078319 4-1.060812 4 0 4 1.060812 3.578535 2.078319 2.828427 2.828427 2.078319 3.578535 1.060812 4 0 4-1.060812 4-2.078319 3.578535-2.828427 2.828427-3.578535 2.078319-4 1.060812-4 0-4-1.060812-3.578535-2.078319-2.828427-2.828427-2.078319-3.578535-1.060812-4 0-4Z" fill="#414487"/>
<path transform="matrix(1,0,0,-1,272.8478,135.83126)" stroke-width=".75" stroke-linecap="butt" stroke-linejoin="round" fill="none" stroke="#ffffff" d="M0-4C1.060812-4 2.078319-3.578535 2.828427-2.828427 3.578535-2.078319 4-1.060812 4 0 4 1.060812 3.578535 2.078319 2.828427 2.828427 2.078319 3.578535 1.060812 4 0 4-1.060812 4-2.078319 3.578535-2.828427 2.828427-3.578535 2.078319-4 1.060812-4 0-4-1.060812-3.578535-2.078319-2.828427-2.828427-2.078319-3.578535-1.060812-4 0-4Z"/>
</g>
<g clip-path="url(#clip_30)">
<path transform="matrix(1,0,0,-1,333.03837,132.89504)" d="M0-4C1.060812-4 2.078319-3.578535 2.828427-2.828427 3.578535-2.078319 4-1.060812 4 0 4 1.060812 3.578535 2.078319 2.828427 2.828427 2.078319 3.578535 1.060812 4 0 4-1.060812 4-2.078319 3.578535-2.828427 2.828427-3.578535 2.078319-4 1.060812-4 0-4-1.060812-3.578535-2.078319-2.828427-2.828427-2.078319-3.578535-1.060812-4 0-4Z" fill="#414487"/>
<path transform="matrix(1,0,0,-1,333.03837,132.89504)" stroke-width=".75" stroke-linecap="butt" stroke-linejoin="round" fill="none" stroke="#ffffff" d="M0-4C1.060812-4 2.078319-3.578535 2.828427-2.828427 3.578535-2.078319 4-1.060812 4 0 4 1.060812 3.578535 2.078319 2.828427 2.828427 2.078319 3.578535 1.060812 4 0 4-1.060812 4-2.078319 3.578535-2.828427 2.828427-3.578535 2.078319-4 1.060812-4 0-4-1.060812-3.578535-2.078319-2.828427-2.828427-2.078319-3.578535-1.060812-4 0-4Z"/>
</g>
<g clip-path="url(#clip_31)">
<path transform="matrix(1,0,0,-1,387.96159,199.43686)" d="M0-4C1.060812-4 2.078319-3.578535 2.828427-2.828427 3.578535-2.078319 4-1.060812 4 0 4 1.060812 3.578535 2.078319 2.828427 2.828427 2.078319 3.578535 1.060812 4 0 4-1.060812 4-2.078319 3.578535-2.828427 2.828427-3.578535 2.078319-4 1.060812-4 0-4-1.060812-3.578535-2.078319-2.828427-2.828427-2.078319-3.578535-1.060812-4 0-4Z" fill="#414487"/>
<path transform="matrix(1,0,0,-1,387.96159,199.43686)" stroke-width=".75" stroke-linecap="butt" stroke-linejoin="round" fill="none" stroke="#ffffff" d="M0-4C1.060812-4 2.078319-3.578535 2.828427-2.828427 3.578535-2.078319 4-1.060812 4 0 4 1.060812 3.578535 2.078319 2.828427 2.828427 2.078319 3.578535 1.060812 4 0 4-1.060812 4-2.078319 3.578535-2.828427 2.828427-3.578535 2.078319-4 1.060812-4 0-4-1.060812-3.578535-2.078319-2.828427-2.828427-2.078319-3.578535-1.060812-4 0-4Z"/>
</g>
<g clip-path="url(#clip_32)">
<path transform="matrix(1,0,0,-1,448.15214,179.43071)" d="M0-4C1.060812-4 2.078319-3.578535 2.828427-2.828427 3.578535-2.078319 4-1.060812 4 0 4 1.060812 3.578535 2.078319 2.828427 2.828427 2.078319 3.578535 1.060812 4 0 4-1.060812 4-2.078319 3.578535-2.828427 2.828427-3.578535 2.078319-4 1.060812-4 0-4-1.060812-3.578535-2.078319-2.828427-2.828427-2.078319-3.578535-1.060812-4 0-4Z" fill="#414487"/>
<path transform="matrix(1,0,0,-1,448.15214,179.43071)" stroke-width=".75" stroke-linecap="butt" stroke-linejoin="round" fill="none" stroke="#ffffff" d="M0-4C1.060812-4 2.078319-3.578535 2.828427-2.828427 3.578535-2.078319 4-1.060812 4 0 4 1.060812 3.578535 2.078319 2.828427 2.828427 2.078319 3.578535 1.060812 4 0 4-1.060812 4-2.078319 3.578535-2.828427 2.828427-3.578535 2.078319-4 1.060812-4 0-4-1.060812-3.578535-2.078319-2.828427-2.828427-2.078319-3.578535-1.060812-4 0-4Z"/>
</g>
</g>
<g clip-path="url(#clip_33)">
<path transform="matrix(1,0,0,-1,0,361.77299)" stroke-width="2.875" stroke-linecap="round" stroke-linejoin="round" fill="none" stroke="#2a788e" d="M102.810817 102.09576 157.73406 99.896389 217.92459 108.01286 272.84785 110.29911 333.03837 138.6853 387.9616 196.96656 448.15217 205.38623"/>
<g clip-path="url(#clip_34)">
<path transform="matrix(1,0,0,-1,102.810817,259.67723)" d="M0-4C1.060812-4 2.078319-3.578535 2.828427-2.828427 3.578535-2.078319 4-1.060812 4 0 4 1.060812 3.578535 2.078319 2.828427 2.828427 2.078319 3.578535 1.060812 4 0 4-1.060812 4-2.078319 3.578535-2.828427 2.828427-3.578535 2.078319-4 1.060812-4 0-4-1.060812-3.578535-2.078319-2.828427-2.828427-2.078319-3.578535-1.060812-4 0-4Z" fill="#2a788e"/>
<path transform="matrix(1,0,0,-1,102.810817,259.67723)" stroke-width=".75" stroke-linecap="butt" stroke-linejoin="round" fill="none" stroke="#ffffff" d="M0-4C1.060812-4 2.078319-3.578535 2.828427-2.828427 3.578535-2.078319 4-1.060812 4 0 4 1.060812 3.578535 2.078319 2.828427 2.828427 2.078319 3.578535 1.060812 4 0 4-1.060812 4-2.078319 3.578535-2.828427 2.828427-3.578535 2.078319-4 1.060812-4 0-4-1.060812-3.578535-2.078319-2.828427-2.828427-2.078319-3.578535-1.060812-4 0-4Z"/>
</g>
<g clip-path="url(#clip_35)">
<path transform="matrix(1,0,0,-1,157.73404,261.8766)" d="M0-4C1.060812-4 2.078319-3.578535 2.828427-2.828427 3.578535-2.078319 4-1.060812 4 0 4 1.060812 3.578535 2.078319 2.828427 2.828427 2.078319 3.578535 1.060812 4 0 4-1.060812 4-2.078319 3.578535-2.828427 2.828427-3.578535 2.078319-4 1.060812-4 0-4-1.060812-3.578535-2.078319-2.828427-2.828427-2.078319-3.578535-1.060812-4 0-4Z" fill="#2a788e"/>
<path transform="matrix(1,0,0,-1,157.73404,261.8766)" stroke-width=".75" stroke-linecap="butt" stroke-linejoin="round" fill="none" stroke="#ffffff" d="M0-4C1.060812-4 2.078319-3.578535 2.828427-2.828427 3.578535-2.078319 4-1.060812 4 0 4 1.060812 3.578535 2.078319 2.828427 2.828427 2.078319 3.578535 1.060812 4 0 4-1.060812 4-2.078319 3.578535-2.828427 2.828427-3.578535 2.078319-4 1.060812-4 0-4-1.060812-3.578535-2.078319-2.828427-2.828427-2.078319-3.578535-1.060812-4 0-4Z"/>
</g>
<g clip-path="url(#clip_36)">
<path transform="matrix(1,0,0,-1,217.92459,253.76012)" d="M0-4C1.060812-4 2.078319-3.578535 2.828427-2.828427 3.578535-2.078319 4-1.060812 4 0 4 1.060812 3.578535 2.078319 2.828427 2.828427 2.078319 3.578535 1.060812 4 0 4-1.060812 4-2.078319 3.578535-2.828427 2.828427-3.578535 2.078319-4 1.060812-4 0-4-1.060812-3.578535-2.078319-2.828427-2.828427-2.078319-3.578535-1.060812-4 0-4Z" fill="#2a788e"/>
<path transform="matrix(1,0,0,-1,217.92459,253.76012)" stroke-width=".75" stroke-linecap="butt" stroke-linejoin="round" fill="none" stroke="#ffffff" d="M0-4C1.060812-4 2.078319-3.578535 2.828427-2.828427 3.578535-2.078319 4-1.060812 4 0 4 1.060812 3.578535 2.078319 2.828427 2.828427 2.078319 3.578535 1.060812 4 0 4-1.060812 4-2.078319 3.578535-2.828427 2.828427-3.578535 2.078319-4 1.060812-4 0-4-1.060812-3.578535-2.078319-2.828427-2.828427-2.078319-3.578535-1.060812-4 0-4Z"/>
</g>
<g clip-path="url(#clip_37)">
<path transform="matrix(1,0,0,-1,272.8478,251.47386)" d="M0-4C1.060812-4 2.078319-3.578535 2.828427-2.828427 3.578535-2.078319 4-1.060812 4 0 4 1.060812 3.578535 2.078319 2.828427 2.828427 2.078319 3.578535 1.060812 4 0 4-1.060812 4-2.078319 3.578535-2.828427 2.828427-3.578535 2.078319-4 1.060812-4 0-4-1.060812-3.578535-2.078319-2.828427-2.828427-2.078319-3.578535-1.060812-4 0-4Z" fill="#2a788e"/>
<path transform="matrix(1,0,0,-1,272.8478,251.47386)" stroke-width=".75" stroke-linecap="butt" stroke-linejoin="round" fill="none" stroke="#ffffff" d="M0-4C1.060812-4 2.078319-3.578535 2.828427-2.828427 3.578535-2.078319 4-1.060812 4 0 4 1.060812 3.578535 2.078319 2.828427 2.828427 2.078319 3.578535 1.060812 4 0 4-1.060812 4-2.078319 3.578535-2.828427 2.828427-3.578535 2.078319-4 1.060812-4 0-4-1.060812-3.578535-2.078319-2.828427-2.828427-2.078319-3.578535-1.060812-4 0-4Z"/>
</g>
<g clip-path="url(#clip_38)">
<path transform="matrix(1,0,0,-1,333.03837,223.08766)" d="M0-4C1.060812-4 2.078319-3.578535 2.828427-2.828427 3.578535-2.078319 4-1.060812 4 0 4 1.060812 3.578535 2.078319 2.828427 2.828427 2.078319 3.578535 1.060812 4 0 4-1.060812 4-2.078319 3.578535-2.828427 2.828427-3.578535 2.078319-4 1.060812-4 0-4-1.060812-3.578535-2.078319-2.828427-2.828427-2.078319-3.578535-1.060812-4 0-4Z" fill="#2a788e"/>
<path transform="matrix(1,0,0,-1,333.03837,223.08766)" stroke-width=".75" stroke-linecap="butt" stroke-linejoin="round" fill="none" stroke="#ffffff" d="M0-4C1.060812-4 2.078319-3.578535 2.828427-2.828427 3.578535-2.078319 4-1.060812 4 0 4 1.060812 3.578535 2.078319 2.828427 2.828427 2.078319 3.578535 1.060812 4 0 4-1.060812 4-2.078319 3.578535-2.828427 2.828427-3.578535 2.078319-4 1.060812-4 0-4-1.060812-3.578535-2.078319-2.828427-2.828427-2.078319-3.578535-1.060812-4 0-4Z"/>
</g>
<g clip-path="url(#clip_39)">
<path transform="matrix(1,0,0,-1,387.96159,164.80643)" d="M0-4C1.060812-4 2.078319-3.578535 2.828427-2.828427 3.578535-2.078319 4-1.060812 4 0 4 1.060812 3.578535 2.078319 2.828427 2.828427 2.078319 3.578535 1.060812 4 0 4-1.060812 4-2.078319 3.578535-2.828427 2.828427-3.578535 2.078319-4 1.060812-4 0-4-1.060812-3.578535-2.078319-2.828427-2.828427-2.078319-3.578535-1.060812-4 0-4Z" fill="#2a788e"/>
<path transform="matrix(1,0,0,-1,387.96159,164.80643)" stroke-width=".75" stroke-linecap="butt" stroke-linejoin="round" fill="none" stroke="#ffffff" d="M0-4C1.060812-4 2.078319-3.578535 2.828427-2.828427 3.578535-2.078319 4-1.060812 4 0 4 1.060812 3.578535 2.078319 2.828427 2.828427 2.078319 3.578535 1.060812 4 0 4-1.060812 4-2.078319 3.578535-2.828427 2.828427-3.578535 2.078319-4 1.060812-4 0-4-1.060812-3.578535-2.078319-2.828427-2.828427-2.078319-3.578535-1.060812-4 0-4Z"/>
</g>
<g clip-path="url(#clip_40)">
<path transform="matrix(1,0,0,-1,448.15214,156.38675)" d="M0-4C1.060812-4 2.078319-3.578535 2.828427-2.828427 3.578535-2.078319 4-1.060812 4 0 4 1.060812 3.578535 2.078319 2.828427 2.828427 2.078319 3.578535 1.060812 4 0 4-1.060812 4-2.078319 3.578535-2.828427 2.828427-3.578535 2.078319-4 1.060812-4 0-4-1.060812-3.578535-2.078319-2.828427-2.828427-2.078319-3.578535-1.060812-4 0-4Z" fill="#2a788e"/>
<path transform="matrix(1,0,0,-1,448.15214,156.38675)" stroke-width=".75" stroke-linecap="butt" stroke-linejoin="round" fill="none" stroke="#ffffff" d="M0-4C1.060812-4 2.078319-3.578535 2.828427-2.828427 3.578535-2.078319 4-1.060812 4 0 4 1.060812 3.578535 2.078319 2.828427 2.828427 2.078319 3.578535 1.060812 4 0 4-1.060812 4-2.078319 3.578535-2.828427 2.828427-3.578535 2.078319-4 1.060812-4 0-4-1.060812-3.578535-2.078319-2.828427-2.828427-2.078319-3.578535-1.060812-4 0-4Z"/>
</g>
</g>
<g clip-path="url(#clip_41)">
<path transform="matrix(1,0,0,-1,0,361.77299)" stroke-width="2.875" stroke-linecap="round" stroke-linejoin="round" fill="none" stroke="#22a884" d="M102.810817 94.99636 157.73406 95.00149 217.92459 95.02177 272.84785 95.042949 333.03837 95.310268 387.9616 95.98943 448.15217 100.61474"/>
<g clip-path="url(#clip_42)">
<path transform="matrix(1,0,0,-1,102.810817,266.7766)" d="M0-4C1.060812-4 2.078319-3.578535 2.828427-2.828427 3.578535-2.078319 4-1.060812 4 0 4 1.060812 3.578535 2.078319 2.828427 2.828427 2.078319 3.578535 1.060812 4 0 4-1.060812 4-2.078319 3.578535-2.828427 2.828427-3.578535 2.078319-4 1.060812-4 0-4-1.060812-3.578535-2.078319-2.828427-2.828427-2.078319-3.578535-1.060812-4 0-4Z" fill="#22a884"/>
<path transform="matrix(1,0,0,-1,102.810817,266.7766)" stroke-width=".75" stroke-linecap="butt" stroke-linejoin="round" fill="none" stroke="#ffffff" d="M0-4C1.060812-4 2.078319-3.578535 2.828427-2.828427 3.578535-2.078319 4-1.060812 4 0 4 1.060812 3.578535 2.078319 2.828427 2.828427 2.078319 3.578535 1.060812 4 0 4-1.060812 4-2.078319 3.578535-2.828427 2.828427-3.578535 2.078319-4 1.060812-4 0-4-1.060812-3.578535-2.078319-2.828427-2.828427-2.078319-3.578535-1.060812-4 0-4Z"/>
</g>
<g clip-path="url(#clip_43)">
<path transform="matrix(1,0,0,-1,157.73404,266.77149)" d="M0-4C1.060812-4 2.078319-3.578535 2.828427-2.828427 3.578535-2.078319 4-1.060812 4 0 4 1.060812 3.578535 2.078319 2.828427 2.828427 2.078319 3.578535 1.060812 4 0 4-1.060812 4-2.078319 3.578535-2.828427 2.828427-3.578535 2.078319-4 1.060812-4 0-4-1.060812-3.578535-2.078319-2.828427-2.828427-2.078319-3.578535-1.060812-4 0-4Z" fill="#22a884"/>
<path transform="matrix(1,0,0,-1,157.73404,266.77149)" stroke-width=".75" stroke-linecap="butt" stroke-linejoin="round" fill="none" stroke="#ffffff" d="M0-4C1.060812-4 2.078319-3.578535 2.828427-2.828427 3.578535-2.078319 4-1.060812 4 0 4 1.060812 3.578535 2.078319 2.828427 2.828427 2.078319 3.578535 1.060812 4 0 4-1.060812 4-2.078319 3.578535-2.828427 2.828427-3.578535 2.078319-4 1.060812-4 0-4-1.060812-3.578535-2.078319-2.828427-2.828427-2.078319-3.578535-1.060812-4 0-4Z"/>
</g>
<g clip-path="url(#clip_44)">
<path transform="matrix(1,0,0,-1,217.92459,266.7512)" d="M0-4C1.060812-4 2.078319-3.578535 2.828427-2.828427 3.578535-2.078319 4-1.060812 4 0 4 1.060812 3.578535 2.078319 2.828427 2.828427 2.078319 3.578535 1.060812 4 0 4-1.060812 4-2.078319 3.578535-2.828427 2.828427-3.578535 2.078319-4 1.060812-4 0-4-1.060812-3.578535-2.078319-2.828427-2.828427-2.078319-3.578535-1.060812-4 0-4Z" fill="#22a884"/>
<path transform="matrix(1,0,0,-1,217.92459,266.7512)" stroke-width=".75" stroke-linecap="butt" stroke-linejoin="round" fill="none" stroke="#ffffff" d="M0-4C1.060812-4 2.078319-3.578535 2.828427-2.828427 3.578535-2.078319 4-1.060812 4 0 4 1.060812 3.578535 2.078319 2.828427 2.828427 2.078319 3.578535 1.060812 4 0 4-1.060812 4-2.078319 3.578535-2.828427 2.828427-3.578535 2.078319-4 1.060812-4 0-4-1.060812-3.578535-2.078319-2.828427-2.828427-2.078319-3.578535-1.060812-4 0-4Z"/>
</g>
<g clip-path="url(#clip_45)">
<path transform="matrix(1,0,0,-1,272.8478,266.73)" d="M0-4C1.060812-4 2.078319-3.578535 2.828427-2.828427 3.578535-2.078319 4-1.060812 4 0 4 1.060812 3.578535 2.078319 2.828427 2.828427 2.078319 3.578535 1.060812 4 0 4-1.060812 4-2.078319 3.578535-2.828427 2.828427-3.578535 2.078319-4 1.060812-4 0-4-1.060812-3.578535-2.078319-2.828427-2.828427-2.078319-3.578535-1.060812-4 0-4Z" fill="#22a884"/>
<path transform="matrix(1,0,0,-1,272.8478,266.73)" stroke-width=".75" stroke-linecap="butt" stroke-linejoin="round" fill="none" stroke="#ffffff" d="M0-4C1.060812-4 2.078319-3.578535 2.828427-2.828427 3.578535-2.078319 4-1.060812 4 0 4 1.060812 3.578535 2.078319 2.828427 2.828427 2.078319 3.578535 1.060812 4 0 4-1.060812 4-2.078319 3.578535-2.828427 2.828427-3.578535 2.078319-4 1.060812-4 0-4-1.060812-3.578535-2.078319-2.828427-2.828427-2.078319-3.578535-1.060812-4 0-4Z"/>
</g>
<g clip-path="url(#clip_46)">
<path transform="matrix(1,0,0,-1,333.03837,266.4627)" d="M0-4C1.060812-4 2.078319-3.578535 2.828427-2.828427 3.578535-2.078319 4-1.060812 4 0 4 1.060812 3.578535 2.078319 2.828427 2.828427 2.078319 3.578535 1.060812 4 0 4-1.060812 4-2.078319 3.578535-2.828427 2.828427-3.578535 2.078319-4 1.060812-4 0-4-1.060812-3.578535-2.078319-2.828427-2.828427-2.078319-3.578535-1.060812-4 0-4Z" fill="#22a884"/>
<path transform="matrix(1,0,0,-1,333.03837,266.4627)" stroke-width=".75" stroke-linecap="butt" stroke-linejoin="round" fill="none" stroke="#ffffff" d="M0-4C1.060812-4 2.078319-3.578535 2.828427-2.828427 3.578535-2.078319 4-1.060812 4 0 4 1.060812 3.578535 2.078319 2.828427 2.828427 2.078319 3.578535 1.060812 4 0 4-1.060812 4-2.078319 3.578535-2.828427 2.828427-3.578535 2.078319-4 1.060812-4 0-4-1.060812-3.578535-2.078319-2.828427-2.828427-2.078319-3.578535-1.060812-4 0-4Z"/>
</g>
<g clip-path="url(#clip_47)">
<path transform="matrix(1,0,0,-1,387.96159,265.78355)" d="M0-4C1.060812-4 2.078319-3.578535 2.828427-2.828427 3.578535-2.078319 4-1.060812 4 0 4 1.060812 3.578535 2.078319 2.828427 2.828427 2.078319 3.578535 1.060812 4 0 4-1.060812 4-2.078319 3.578535-2.828427 2.828427-3.578535 2.078319-4 1.060812-4 0-4-1.060812-3.578535-2.078319-2.828427-2.828427-2.078319-3.578535-1.060812-4 0-4Z" fill="#22a884"/>
<path transform="matrix(1,0,0,-1,387.96159,265.78355)" stroke-width=".75" stroke-linecap="butt" stroke-linejoin="round" fill="none" stroke="#ffffff" d="M0-4C1.060812-4 2.078319-3.578535 2.828427-2.828427 3.578535-2.078319 4-1.060812 4 0 4 1.060812 3.578535 2.078319 2.828427 2.828427 2.078319 3.578535 1.060812 4 0 4-1.060812 4-2.078319 3.578535-2.828427 2.828427-3.578535 2.078319-4 1.060812-4 0-4-1.060812-3.578535-2.078319-2.828427-2.828427-2.078319-3.578535-1.060812-4 0-4Z"/>
</g>
<g clip-path="url(#clip_48)">
<path transform="matrix(1,0,0,-1,448.15214,261.15824)" d="M0-4C1.060812-4 2.078319-3.578535 2.828427-2.828427 3.578535-2.078319 4-1.060812 4 0 4 1.060812 3.578535 2.078319 2.828427 2.828427 2.078319 3.578535 1.060812 4 0 4-1.060812 4-2.078319 3.578535-2.828427 2.828427-3.578535 2.078319-4 1.060812-4 0-4-1.060812-3.578535-2.078319-2.828427-2.828427-2.078319-3.578535-1.060812-4 0-4Z" fill="#22a884"/>
<path transform="matrix(1,0,0,-1,448.15214,261.15824)" stroke-width=".75" stroke-linecap="butt" stroke-linejoin="round" fill="none" stroke="#ffffff" d="M0-4C1.060812-4 2.078319-3.578535 2.828427-2.828427 3.578535-2.078319 4-1.060812 4 0 4 1.060812 3.578535 2.078319 2.828427 2.828427 2.078319 3.578535 1.060812 4 0 4-1.060812 4-2.078319 3.578535-2.828427 2.828427-3.578535 2.078319-4 1.060812-4 0-4-1.060812-3.578535-2.078319-2.828427-2.828427-2.078319-3.578535-1.060812-4 0-4Z"/>
</g>
</g>
<g clip-path="url(#clip_49)">
<path transform="matrix(1,0,0,-1,0,361.77299)" stroke-width="2.875" stroke-linecap="round" stroke-linejoin="round" fill="none" stroke="#7ad151" d="M102.810817 94.74029H157.73406 217.92459 272.84785 333.03837L387.9616 94.74092 448.15217 95.51906"/>
<g clip-path="url(#clip_50)">
<path transform="matrix(1,0,0,-1,102.810817,267.03269)" d="M0-4C1.060812-4 2.078319-3.578535 2.828427-2.828427 3.578535-2.078319 4-1.060812 4 0 4 1.060812 3.578535 2.078319 2.828427 2.828427 2.078319 3.578535 1.060812 4 0 4-1.060812 4-2.078319 3.578535-2.828427 2.828427-3.578535 2.078319-4 1.060812-4 0-4-1.060812-3.578535-2.078319-2.828427-2.828427-2.078319-3.578535-1.060812-4 0-4Z" fill="#7ad151"/>
<path transform="matrix(1,0,0,-1,102.810817,267.03269)" stroke-width=".75" stroke-linecap="butt" stroke-linejoin="round" fill="none" stroke="#ffffff" d="M0-4C1.060812-4 2.078319-3.578535 2.828427-2.828427 3.578535-2.078319 4-1.060812 4 0 4 1.060812 3.578535 2.078319 2.828427 2.828427 2.078319 3.578535 1.060812 4 0 4-1.060812 4-2.078319 3.578535-2.828427 2.828427-3.578535 2.078319-4 1.060812-4 0-4-1.060812-3.578535-2.078319-2.828427-2.828427-2.078319-3.578535-1.060812-4 0-4Z"/>
</g>
<g clip-path="url(#clip_51)">
<path transform="matrix(1,0,0,-1,157.73404,267.03269)" d="M0-4C1.060812-4 2.078319-3.578535 2.828427-2.828427 3.578535-2.078319 4-1.060812 4 0 4 1.060812 3.578535 2.078319 2.828427 2.828427 2.078319 3.578535 1.060812 4 0 4-1.060812 4-2.078319 3.578535-2.828427 2.828427-3.578535 2.078319-4 1.060812-4 0-4-1.060812-3.578535-2.078319-2.828427-2.828427-2.078319-3.578535-1.060812-4 0-4Z" fill="#7ad151"/>
<path transform="matrix(1,0,0,-1,157.73404,267.03269)" stroke-width=".75" stroke-linecap="butt" stroke-linejoin="round" fill="none" stroke="#ffffff" d="M0-4C1.060812-4 2.078319-3.578535 2.828427-2.828427 3.578535-2.078319 4-1.060812 4 0 4 1.060812 3.578535 2.078319 2.828427 2.828427 2.078319 3.578535 1.060812 4 0 4-1.060812 4-2.078319 3.578535-2.828427 2.828427-3.578535 2.078319-4 1.060812-4 0-4-1.060812-3.578535-2.078319-2.828427-2.828427-2.078319-3.578535-1.060812-4 0-4Z"/>
</g>
<g clip-path="url(#clip_52)">
<path transform="matrix(1,0,0,-1,217.92459,267.03269)" d="M0-4C1.060812-4 2.078319-3.578535 2.828427-2.828427 3.578535-2.078319 4-1.060812 4 0 4 1.060812 3.578535 2.078319 2.828427 2.828427 2.078319 3.578535 1.060812 4 0 4-1.060812 4-2.078319 3.578535-2.828427 2.828427-3.578535 2.078319-4 1.060812-4 0-4-1.060812-3.578535-2.078319-2.828427-2.828427-2.078319-3.578535-1.060812-4 0-4Z" fill="#7ad151"/>
<path transform="matrix(1,0,0,-1,217.92459,267.03269)" stroke-width=".75" stroke-linecap="butt" stroke-linejoin="round" fill="none" stroke="#ffffff" d="M0-4C1.060812-4 2.078319-3.578535 2.828427-2.828427 3.578535-2.078319 4-1.060812 4 0 4 1.060812 3.578535 2.078319 2.828427 2.828427 2.078319 3.578535 1.060812 4 0 4-1.060812 4-2.078319 3.578535-2.828427 2.828427-3.578535 2.078319-4 1.060812-4 0-4-1.060812-3.578535-2.078319-2.828427-2.828427-2.078319-3.578535-1.060812-4 0-4Z"/>
</g>
<g clip-path="url(#clip_53)">
<path transform="matrix(1,0,0,-1,272.8478,267.03269)" d="M0-4C1.060812-4 2.078319-3.578535 2.828427-2.828427 3.578535-2.078319 4-1.060812 4 0 4 1.060812 3.578535 2.078319 2.828427 2.828427 2.078319 3.578535 1.060812 4 0 4-1.060812 4-2.078319 3.578535-2.828427 2.828427-3.578535 2.078319-4 1.060812-4 0-4-1.060812-3.578535-2.078319-2.828427-2.828427-2.078319-3.578535-1.060812-4 0-4Z" fill="#7ad151"/>
<path transform="matrix(1,0,0,-1,272.8478,267.03269)" stroke-width=".75" stroke-linecap="butt" stroke-linejoin="round" fill="none" stroke="#ffffff" d="M0-4C1.060812-4 2.078319-3.578535 2.828427-2.828427 3.578535-2.078319 4-1.060812 4 0 4 1.060812 3.578535 2.078319 2.828427 2.828427 2.078319 3.578535 1.060812 4 0 4-1.060812 4-2.078319 3.578535-2.828427 2.828427-3.578535 2.078319-4 1.060812-4 0-4-1.060812-3.578535-2.078319-2.828427-2.828427-2.078319-3.578535-1.060812-4 0-4Z"/>
</g>
<g clip-path="url(#clip_54)">
<path transform="matrix(1,0,0,-1,333.03837,267.03269)" d="M0-4C1.060812-4 2.078319-3.578535 2.828427-2.828427 3.578535-2.078319 4-1.060812 4 0 4 1.060812 3.578535 2.078319 2.828427 2.828427 2.078319 3.578535 1.060812 4 0 4-1.060812 4-2.078319 3.578535-2.828427 2.828427-3.578535 2.078319-4 1.060812-4 0-4-1.060812-3.578535-2.078319-2.828427-2.828427-2.078319-3.578535-1.060812-4 0-4Z" fill="#7ad151"/>
<path transform="matrix(1,0,0,-1,333.03837,267.03269)" stroke-width=".75" stroke-linecap="butt" stroke-linejoin="round" fill="none" stroke="#ffffff" d="M0-4C1.060812-4 2.078319-3.578535 2.828427-2.828427 3.578535-2.078319 4-1.060812 4 0 4 1.060812 3.578535 2.078319 2.828427 2.828427 2.078319 3.578535 1.060812 4 0 4-1.060812 4-2.078319 3.578535-2.828427 2.828427-3.578535 2.078319-4 1.060812-4 0-4-1.060812-3.578535-2.078319-2.828427-2.828427-2.078319-3.578535-1.060812-4 0-4Z"/>
</g>
<g clip-path="url(#clip_55)">
<path transform="matrix(1,0,0,-1,387.96159,267.03205)" d="M0-4C1.060812-4 2.078319-3.578535 2.828427-2.828427 3.578535-2.078319 4-1.060812 4 0 4 1.060812 3.578535 2.078319 2.828427 2.828427 2.078319 3.578535 1.060812 4 0 4-1.060812 4-2.078319 3.578535-2.828427 2.828427-3.578535 2.078319-4 1.060812-4 0-4-1.060812-3.578535-2.078319-2.828427-2.828427-2.078319-3.578535-1.060812-4 0-4Z" fill="#7ad151"/>
<path transform="matrix(1,0,0,-1,387.96159,267.03205)" stroke-width=".75" stroke-linecap="butt" stroke-linejoin="round" fill="none" stroke="#ffffff" d="M0-4C1.060812-4 2.078319-3.578535 2.828427-2.828427 3.578535-2.078319 4-1.060812 4 0 4 1.060812 3.578535 2.078319 2.828427 2.828427 2.078319 3.578535 1.060812 4 0 4-1.060812 4-2.078319 3.578535-2.828427 2.828427-3.578535 2.078319-4 1.060812-4 0-4-1.060812-3.578535-2.078319-2.828427-2.828427-2.078319-3.578535-1.060812-4 0-4Z"/>
</g>
<g clip-path="url(#clip_56)">
<path transform="matrix(1,0,0,-1,448.15214,266.2539)" d="M0-4C1.060812-4 2.078319-3.578535 2.828427-2.828427 3.578535-2.078319 4-1.060812 4 0 4 1.060812 3.578535 2.078319 2.828427 2.828427 2.078319 3.578535 1.060812 4 0 4-1.060812 4-2.078319 3.578535-2.828427 2.828427-3.578535 2.078319-4 1.060812-4 0-4-1.060812-3.578535-2.078319-2.828427-2.828427-2.078319-3.578535-1.060812-4 0-4Z" fill="#7ad151"/>
<path transform="matrix(1,0,0,-1,448.15214,266.2539)" stroke-width=".75" stroke-linecap="butt" stroke-linejoin="round" fill="none" stroke="#ffffff" d="M0-4C1.060812-4 2.078319-3.578535 2.828427-2.828427 3.578535-2.078319 4-1.060812 4 0 4 1.060812 3.578535 2.078319 2.828427 2.828427 2.078319 3.578535 1.060812 4 0 4-1.060812 4-2.078319 3.578535-2.828427 2.828427-3.578535 2.078319-4 1.060812-4 0-4-1.060812-3.578535-2.078319-2.828427-2.828427-2.078319-3.578535-1.060812-4 0-4Z"/>
</g>
</g>
<path transform="matrix(1,0,0,-1,0,361.77299)" stroke-width="1.25" stroke-linecap="square" stroke-miterlimit="10" stroke-linejoin="miter" fill="none" stroke="#cccccc" d="M85.54375 84.1375V317.39878"/>
<path transform="matrix(1,0,0,-1,0,361.77299)" stroke-width="1.25" stroke-linecap="square" stroke-miterlimit="10" stroke-linejoin="miter" fill="none" stroke="#cccccc" d="M465.41923 84.1375V317.39878"/>
<path transform="matrix(1,0,0,-1,0,361.77299)" stroke-width="1.25" stroke-linecap="square" stroke-miterlimit="10" stroke-linejoin="miter" fill="none" stroke="#cccccc" d="M85.54375 84.1375H465.41923"/>
<path transform="matrix(1,0,0,-1,0,361.77299)" stroke-width="1.25" stroke-linecap="square" stroke-miterlimit="10" stroke-linejoin="miter" fill="none" stroke="#cccccc" d="M85.54375 317.39878H465.41923"/>
<use data-text="R" xlink:href="#font_57_82" transform="matrix(29.9,0,0,-29.9,92.051799,29.043763)" fill="#262626"/>
<use data-text="e" xlink:href="#font_57_101" transform="matrix(29.9,0,0,-29.9,113.639598,29.043763)" fill="#262626"/>
<use data-text="s" xlink:href="#font_57_115" transform="matrix(29.9,0,0,-29.9,130.264,29.043763)" fill="#262626"/>
<use data-text="N" xlink:href="#font_57_78" transform="matrix(29.9,0,0,-29.9,146.8884,29.043763)" fill="#262626"/>
<use data-text="e" xlink:href="#font_57_101" transform="matrix(29.9,0,0,-29.9,168.4762,29.043763)" fill="#262626"/>
<use data-text="t" xlink:href="#font_57_116" transform="matrix(29.9,0,0,-29.9,185.10062,29.043763)" fill="#262626"/>
<use data-text="-" xlink:href="#font_57_45" transform="matrix(29.9,0,0,-29.9,195.05731,29.043763)" fill="#262626"/>
<use data-text="2" xlink:href="#font_57_50" transform="matrix(29.9,0,0,-29.9,205.014,29.043763)" fill="#262626"/>
<use data-text="0" xlink:href="#font_57_48" transform="matrix(29.9,0,0,-29.9,221.63843,29.043763)" fill="#262626"/>
<use data-text=" " xlink:href="#font_57_32" transform="matrix(29.9,0,0,-29.9,238.26282,29.043763)" fill="#262626"/>
<use data-text="(" xlink:href="#font_57_40" transform="matrix(29.9,0,0,-29.9,246.57501,29.043763)" fill="#262626"/>
<use data-text="A" xlink:href="#font_57_65" transform="matrix(29.9,0,0,-29.9,256.5317,29.043763)" fill="#262626"/>
<use data-text="d" xlink:href="#font_57_100" transform="matrix(29.9,0,0,-29.9,278.1195,29.043763)" fill="#262626"/>
<use data-text="a" xlink:href="#font_57_97" transform="matrix(29.9,0,0,-29.9,296.38844,29.043763)" fill="#262626"/>
<use data-text="m" xlink:href="#font_57_109" transform="matrix(29.9,0,0,-29.9,313.01283,29.043763)" fill="#262626"/>
<use data-text=")" xlink:href="#font_57_41" transform="matrix(29.9,0,0,-29.9,339.59394,29.043763)" fill="#262626"/>
<use data-text=" " xlink:href="#font_57_32" transform="matrix(29.9,0,0,-29.9,349.55064,29.043763)" fill="#262626"/>
<use data-text="-" xlink:href="#font_57_45" transform="matrix(29.9,0,0,-29.9,357.86283,29.043763)" fill="#262626"/>
<use data-text=" " xlink:href="#font_57_32" transform="matrix(29.9,0,0,-29.9,367.81953,29.043763)" fill="#262626"/>
<use data-text="B" xlink:href="#font_57_66" transform="matrix(29.9,0,0,-29.9,376.1317,29.043763)" fill="#262626"/>
<use data-text="a" xlink:href="#font_57_97" transform="matrix(29.9,0,0,-29.9,397.7195,29.043763)" fill="#262626"/>
<use data-text="t" xlink:href="#font_57_116" transform="matrix(29.9,0,0,-29.9,414.3439,29.043763)" fill="#262626"/>
<use data-text="c" xlink:href="#font_57_99" transform="matrix(29.9,0,0,-29.9,424.3006,29.043763)" fill="#262626"/>
<use data-text="h" xlink:href="#font_57_104" transform="matrix(29.9,0,0,-29.9,440.925,29.043763)" fill="#262626"/>
</svg>
