<svg xmlns="http://www.w3.org/2000/svg" xmlns:xlink="http://www.w3.org/1999/xlink" xmlns:inkscape="http://www.inkscape.org/namespaces/inkscape" version="1.1" width="648" height="72" viewBox="0 0 648 72">
<defs>
<clipPath id="clip_1">
<path transform="matrix(1,0,0,-1,0,72)" d="M0 0H648V72H0Z"/>
</clipPath>
</defs>
<g clip-path="url(#clip_1)">
<path transform="matrix(1,0,0,-1,0,72)" stroke-width="4.27" stroke-linecap="round" stroke-linejoin="round" fill="none" stroke="#d3d3d3" d="M29.45 0V72"/>
<path transform="matrix(1,0,0,-1,0,72)" stroke-width="4.27" stroke-linecap="round" stroke-linejoin="round" fill="none" stroke="#d3d3d3" d="M324 0V72"/>
<path transform="matrix(1,0,0,-1,0,72)" stroke-width="4.27" stroke-linecap="round" stroke-linejoin="round" fill="none" stroke="#d3d3d3" d="M618.55 0V72"/>
<path transform="matrix(1,0,0,-1,0,72)" d="M539.3 16C539.3 20.89 543.31 24.89 548.19 24.89 553.08 24.89 557.09 20.89 557.09 16 557.09 11.11 553.08 7.11 548.19 7.11 543.31 7.11 539.3 11.11 539.3 16" fill="#f8766d"/>
<path transform="matrix(1,0,0,-1,0,72)" stroke-width=".71" stroke-linecap="round" stroke-linejoin="round" fill="none" stroke="#f8766d" d="M539.3 16C539.3 20.89 543.31 24.89 548.19 24.89 553.08 24.89 557.09 20.89 557.09 16 557.09 11.11 553.08 7.11 548.19 7.11 543.31 7.11 539.3 11.11 539.3 16"/>
<path transform="matrix(1,0,0,-1,0,72)" d="M463.28 36C463.28 40.89 467.28 44.89 472.17 44.89 477.06 44.89 481.06 40.89 481.06 36 481.06 31.11 477.06 27.11 472.17 27.11 467.28 27.11 463.28 31.11 463.28 36" fill="#00ba38"/>
<path transform="matrix(1,0,0,-1,0,72)" stroke-width=".71" stroke-linecap="round" stroke-linejoin="round" fill="none" stroke="#00ba38" d="M463.28 36C463.28 40.89 467.28 44.89 472.17 44.89 477.06 44.89 481.06 40.89 481.06 36 481.06 31.11 477.06 27.11 472.17 27.11 467.28 27.11 463.28 31.11 463.28 36"/>
<path transform="matrix(1,0,0,-1,0,72)" d="M524.08 56C524.08 60.89 528.08 64.89 532.97 64.89 537.86 64.89 541.86 60.89 541.86 56 541.86 51.11 537.86 47.11 532.97 47.11 528.08 47.11 524.08 51.11 524.08 56" fill="#619cff"/>
<path transform="matrix(1,0,0,-1,0,72)" stroke-width=".71" stroke-linecap="round" stroke-linejoin="round" fill="none" stroke="#619cff" d="M524.08 56C524.08 60.89 528.08 64.89 532.97 64.89 537.86 64.89 541.86 60.89 541.86 56 541.86 51.11 537.86 47.11 532.97 47.11 528.08 47.11 524.08 51.11 524.08 56"/>
<path transform="matrix(1,0,0,-1,0,72)" stroke-width="8.54" stroke-linecap="butt" stroke-linejoin="round" fill="none" stroke="#f8766d" d="M541.32 16H555.07"/>
<path transform="matrix(1,0,0,-1,0,72)" stroke-width="8.54" stroke-linecap="butt" stroke-linejoin="round" fill="none" stroke="#00ba38" d="M461.69 36H482.65"/>
<path transform="matrix(1,0,0,-1,0,72)" stroke-width="8.54" stroke-linecap="butt" stroke-linejoin="round" fill="none" stroke="#619cff" d="M521.35 56H544.58"/>
</g>
</svg>
